<?xml version="1.0" standalone="no"?>
<!DOCTYPE svg PUBLIC "-//W3C//DTD SVG 20010904//EN"
 "http://www.w3.org/TR/2001/REC-SVG-20010904/DTD/svg10.dtd">
<svg version="1.0" xmlns="http://www.w3.org/2000/svg"
 width="640.000000pt" height="640.000000pt" viewBox="0 0 640.000000 640.000000"
 preserveAspectRatio="xMidYMid meet">
<metadata>
Created by potrace 1.14, written by Peter Selinger 2001-2017
</metadata>
<g transform="translate(0.000000,640.000000) scale(0.100000,-0.100000)"
fill="#000000" stroke="none">
<path d="M3202 5851 c-7 -4 -35 -6 -62 -3 -39 3 -63 -2 -117 -26 -55 -25 -85
-32 -157 -35 -83 -3 -91 -6 -113 -31 -13 -16 -23 -29 -21 -31 2 -1 44 -5 93
-8 93 -6 214 -29 271 -53 35 -15 35 -17 15 -113 -6 -33 -9 -34 -91 -55 l-85
-22 -8 -45 c-16 -90 -17 -88 74 -103 19 -4 43 -12 53 -19 17 -12 16 -15 -9
-45 -21 -25 -46 -38 -113 -58 -84 -26 -139 -54 -79 -40 15 3 39 9 55 12 37 8
-279 -305 -368 -365 -46 -30 -67 -52 -75 -74 -8 -24 -23 -38 -65 -59 -30 -15
-49 -28 -42 -28 6 0 12 -6 12 -14 0 -21 -55 -36 -136 -36 -62 0 -72 -2 -67
-15 4 -12 19 -15 59 -14 30 1 57 0 60 -4 10 -10 -48 -57 -78 -63 -16 -4 -28
-13 -28 -21 0 -26 -51 -63 -86 -63 -19 0 -34 -4 -34 -10 0 -5 5 -10 10 -10 6
0 10 -8 10 -19 0 -22 -61 -79 -140 -130 -49 -32 -55 -39 -41 -48 14 -10 11
-13 -21 -27 -21 -9 -45 -16 -53 -16 -9 0 -26 -5 -38 -12 l-22 -12 24 -6 c22
-5 11 -18 -125 -152 -197 -194 -213 -208 -326 -283 -90 -60 -128 -95 -128
-119 0 -6 16 6 36 27 20 20 43 37 51 37 8 0 -16 -27 -53 -60 -37 -32 -70 -57
-74 -55 -9 5 -5 280 5 375 31 304 84 454 240 673 99 140 195 241 317 332 213
161 305 196 518 196 69 0 148 -3 175 -6 28 -4 112 -7 188 -9 126 -2 161 3 122
18 -23 9 -18 26 9 26 13 0 29 7 36 15 7 8 11 15 9 15 -2 0 -37 -7 -78 -16
-100 -20 -356 -20 -489 1 -12 2 -74 7 -137 11 -119 7 -138 1 -93 -30 12 -9 20
-17 17 -19 -2 -2 -38 -21 -79 -41 -195 -98 -400 -267 -513 -424 -135 -188
-234 -442 -262 -677 -3 -27 -8 -66 -11 -85 -4 -19 -7 -116 -9 -214 l-2 -179
-124 -121 c-110 -107 -247 -235 -459 -431 -35 -33 -100 -95 -143 -137 -74 -72
-111 -98 -124 -84 -10 10 24 87 92 206 67 119 90 177 101 261 5 38 3 54 -9 67
-9 9 -27 60 -42 112 -29 106 -58 155 -75 130 -6 -8 -9 -37 -7 -63 2 -26 -1
-55 -8 -63 -10 -14 -13 -13 -26 7 -9 13 -21 38 -28 55 -7 17 -23 36 -37 42
l-24 12 0 -70 0 -69 -82 -25 c-46 -14 -89 -30 -96 -34 -7 -5 -17 -38 -22 -73
-14 -93 -13 -99 12 -99 12 0 30 -8 40 -17 19 -17 21 -17 50 0 51 29 78 19 78
-30 0 -9 -25 -49 -55 -90 -31 -40 -60 -85 -65 -99 -16 -42 -11 -112 10 -154
38 -74 24 -184 -49 -390 -42 -119 -49 -173 -29 -231 15 -45 154 -288 180 -316
11 -12 36 -29 54 -38 19 -9 34 -22 34 -29 0 -6 16 -27 35 -46 40 -39 43 -36
14 19 -15 29 -18 45 -11 57 8 15 11 12 17 -17 12 -53 39 -101 123 -211 115
-152 149 -217 105 -204 -68 20 -115 26 -136 15 l-21 -12 24 -9 c13 -5 64 -9
112 -10 l88 -2 25 -42 c38 -64 125 -130 125 -94 0 6 -7 22 -16 35 -18 28 -4
34 17 8 33 -39 112 -93 137 -93 15 1 52 14 82 30 55 30 125 40 132 20 2 -6 27
-17 57 -25 30 -8 58 -18 63 -23 11 -11 -109 -41 -136 -34 -17 5 -17 6 2 16 48
26 10 43 -40 18 -19 -8 -28 -20 -28 -37 0 -34 13 -38 67 -22 27 8 57 11 67 7
48 -17 -21 -25 -219 -26 -116 0 -223 -2 -240 -3 -29 -3 -29 -3 -6 -10 23 -6
21 -9 -29 -41 -55 -36 -110 -86 -110 -101 0 -18 -41 -49 -65 -49 -20 0 -25 -5
-25 -24 0 -30 -32 -42 -137 -51 -40 -4 -71 -11 -68 -15 4 -7 64 -4 91 5 6 2
17 0 24 -5 10 -6 8 -16 -9 -44 -27 -42 -21 -45 23 -11 18 14 41 25 52 25 17 0
16 -2 -4 -16 -12 -8 -29 -28 -37 -44 -12 -24 -25 -30 -89 -44 -41 -10 -80 -24
-86 -32 -17 -19 10 -19 48 0 15 7 37 17 50 20 35 11 28 -20 -9 -39 -17 -9 -28
-19 -25 -22 3 -3 24 7 47 23 69 48 97 62 124 56 35 -6 32 -22 -4 -22 -17 0
-33 -5 -37 -12 -5 -8 8 -9 51 -4 68 8 80 13 65 31 -19 23 45 35 151 30 62 -4
107 -1 125 6 29 12 29 12 -21 20 -27 5 -107 8 -176 7 -75 0 -134 4 -145 10
-22 13 -16 14 56 16 37 1 44 4 42 19 -2 9 4 20 13 23 8 3 15 14 15 23 0 17
121 114 155 124 49 15 117 17 195 7 81 -10 101 -13 178 -26 53 -8 194 -6 204
4 13 13 -149 40 -254 42 -19 0 -26 4 -22 14 4 11 -3 12 -41 5 -26 -5 -72 -7
-103 -5 -72 5 -70 5 -52 16 8 5 40 10 71 10 38 0 61 5 69 15 17 21 48 19 62
-5 11 -17 24 -20 78 -20 61 0 90 10 90 32 0 4 -13 8 -30 8 -47 0 -35 17 17 25
51 7 181 59 167 67 -5 2 -27 5 -49 7 -22 1 -48 4 -57 7 -21 6 -24 20 -5 21 6
0 48 4 92 8 65 5 104 2 211 -19 167 -33 208 -36 269 -18 50 14 83 13 209 -8
56 -10 89 -9 185 4 156 22 184 26 198 31 6 2 29 -9 51 -25 41 -30 56 -32 253
-47 169 -12 269 -9 319 11 79 31 133 31 296 -3 177 -36 202 -37 353 -11 143
25 174 25 221 -1 l37 -21 174 26 c244 36 230 35 379 42 l135 7 70 44 c39 24
115 71 170 103 115 68 181 125 224 193 19 31 44 56 68 68 37 18 39 21 50 91
10 63 68 237 85 253 3 3 6 -24 7 -61 1 -36 3 -69 5 -73 2 -3 7 -35 11 -71 4
-36 10 -94 15 -130 11 -90 7 -169 -9 -179 -10 -6 -8 -15 8 -42 12 -19 21 -43
21 -54 1 -26 105 -78 138 -69 12 3 22 9 22 12 0 3 -14 28 -32 55 -25 39 -29
53 -21 66 9 14 7 20 -6 28 -34 22 -51 115 -66 373 -7 103 -15 182 -20 191 -3
3 7 19 21 34 l25 27 -22 24 c-18 19 -24 41 -30 111 -4 49 -8 90 -8 92 -1 2
-16 1 -33 -2 -18 -2 -43 0 -56 6 -20 9 -21 13 -9 31 7 12 14 40 16 62 2 32 -2
43 -16 49 -35 16 -48 9 -71 -35 -23 -46 -41 -62 -43 -38 0 7 -2 30 -3 50 -2
21 5 61 15 90 16 47 16 55 2 70 -25 28 -27 87 -5 152 12 37 17 68 13 80 -4 12
-4 32 0 46 14 48 10 56 -28 68 -49 15 -67 0 -54 -45 11 -36 7 -43 -25 -43 -16
0 -33 14 -54 45 -34 49 -62 58 -81 24 -13 -26 -4 -85 16 -93 8 -3 17 -1 20 4
19 31 76 -11 112 -83 l19 -38 -26 -53 c-14 -29 -31 -61 -39 -70 -15 -18 -5
-70 30 -153 l18 -43 -34 0 c-29 0 -46 -10 -95 -55 -42 -39 -54 -55 -41 -55 10
0 24 -6 30 -14 9 -10 3 -21 -23 -49 -46 -49 -61 -33 -52 55 3 35 9 90 12 123
4 33 3 57 -1 53 -4 -4 -9 -23 -11 -44 -2 -20 -5 -37 -6 -38 -2 -1 -25 -9 -53
-17 -61 -18 -67 -39 -31 -108 28 -54 28 -55 -37 -95 -21 -12 -26 -22 -22 -37
8 -24 -29 -98 -61 -122 -24 -18 -24 -18 -24 10 0 16 11 45 25 66 22 31 23 37
9 37 -14 0 -15 6 -10 38 4 20 9 69 12 107 3 39 13 92 22 118 16 47 16 49 -3
63 -19 14 -20 13 -22 -33 -2 -26 -5 -76 -9 -110 -5 -57 -8 -63 -28 -63 -58 0
-100 -76 -56 -100 34 -18 13 -28 -40 -18 -60 11 -120 7 -121 -7 -1 -5 24 -18
56 -28 31 -10 54 -24 52 -30 -3 -11 -58 -41 -146 -81 l-54 -24 -144 90 c-161
101 -281 187 -347 249 -39 37 -45 48 -51 98 -10 82 -70 369 -121 581 -41 168
-106 457 -117 520 -7 36 -84 436 -108 559 -12 57 -23 115 -25 128 -3 14 -14
48 -24 76 -24 62 -25 114 -4 142 20 27 26 15 54 -108 28 -126 231 -939 345
-1382 76 -293 126 -500 141 -575 8 -38 46 -117 50 -104 3 6 -43 199 -101 430
-276 1093 -386 1531 -418 1672 l-35 154 87 87 c96 97 271 233 341 264 61 27
162 29 280 6 52 -11 108 -21 123 -24 16 -3 66 -16 112 -30 80 -23 120 -24 154
-5 13 7 10 11 -14 21 -17 7 -95 50 -175 95 -291 164 -370 195 -572 224 -140
21 -130 17 -445 178 -125 64 -136 73 -146 129 -8 39 6 45 62 31 53 -13 62 -5
69 61 4 48 3 51 -28 68 -112 62 -120 70 -120 116 0 24 9 95 20 157 23 123 23
165 2 151z m-61 -88 c-8 -15 -10 -15 -11 -2 0 17 10 32 18 25 2 -3 -1 -13 -7
-23z m-55 -376 c-9 -32 -17 -41 -32 -40 -10 2 -29 4 -41 5 -20 2 -23 8 -23 43
0 41 0 41 34 37 19 -2 37 1 41 8 5 8 10 8 20 0 11 -9 11 -19 1 -53z m52 -2
c-7 -21 -19 -40 -25 -43 -19 -6 -16 63 3 83 25 25 37 4 22 -40z m72 25 c0 -5
-6 -10 -14 -10 -8 0 -18 5 -21 10 -3 6 3 10 14 10 12 0 21 -4 21 -10z m-36
-126 c17 -16 22 -74 8 -74 -11 0 -32 46 -32 70 0 24 4 25 24 4z m-108 -89 c9
-22 -4 -77 -24 -103 -16 -21 -23 -22 -75 -16 -32 4 -57 12 -57 18 0 18 97 109
104 98 3 -6 2 -22 -4 -37 -14 -36 -12 -44 5 -21 8 11 15 32 15 48 0 30 26 40
36 13z m148 -41 c3 -9 6 -32 6 -52 0 -32 -2 -34 -14 -22 -8 8 -18 32 -21 53
-6 29 -4 37 8 37 8 0 18 -7 21 -16z m-47 -24 c1 -11 -2 -18 -8 -15 -11 7 -12
35 -1 35 4 0 8 -9 9 -20z m258 -61 c68 -33 69 -34 37 -37 -18 -2 -56 1 -83 7
-28 6 -65 11 -83 11 -23 0 -36 6 -41 18 -14 35 -23 71 -18 75 5 6 92 -28 188
-74z m-409 -13 c55 -4 109 -8 120 -10 10 -2 44 -7 74 -11 30 -3 113 -18 185
-31 71 -14 154 -27 185 -30 91 -9 187 -32 215 -50 l27 -18 -49 -12 c-45 -12
-198 -93 -190 -101 5 -4 168 50 230 76 61 26 123 20 252 -24 147 -50 176 -62
205 -86 14 -12 20 -18 13 -15 -24 13 -210 7 -282 -8 -307 -65 -630 -387 -760
-759 -67 -192 -94 -451 -69 -662 49 -416 244 -802 549 -1089 45 -42 79 -79 77
-82 -13 -12 -52 16 -86 61 -25 34 -57 61 -100 83 -51 27 -62 38 -62 58 0 18
-7 28 -28 35 -19 6 -36 25 -50 55 -13 26 -32 48 -46 54 -18 7 -23 14 -19 30 4
16 -1 23 -25 32 -24 9 -29 17 -28 42 1 27 -3 31 -37 39 -21 5 -41 7 -44 4 -7
-8 147 -199 231 -285 64 -66 68 -72 39 -61 -18 6 -70 48 -116 92 -60 59 -102
91 -153 116 l-70 33 -56 102 c-104 188 -169 368 -217 604 -15 73 -32 131 -37
130 -5 -2 -8 -15 -6 -30 2 -14 -1 -29 -6 -32 -6 -3 -55 14 -110 38 -107 48
-216 86 -241 86 -27 -1 57 -41 172 -82 60 -21 119 -43 131 -49 33 -17 66 -51
66 -67 0 -20 -46 -10 -153 33 -79 32 -147 51 -147 41 0 -7 81 -43 150 -66 91
-31 180 -71 180 -81 0 -21 -84 -7 -158 26 -77 33 -168 57 -147 38 11 -11 147
-68 185 -79 38 -10 130 -56 130 -65 0 -4 -13 -10 -30 -14 -22 -5 -52 4 -123
35 -52 22 -107 43 -123 45 l-29 5 21 -18 c12 -10 73 -35 137 -56 72 -24 128
-49 151 -68 39 -32 40 -49 3 -42 -21 4 -21 4 -2 -6 38 -21 75 -81 75 -122 0
-21 -5 -38 -11 -38 -6 0 3 -13 20 -29 17 -16 31 -37 31 -48 0 -10 9 -32 19
-50 22 -35 18 -47 -11 -32 -10 6 -24 9 -31 6 -6 -2 9 -14 33 -28 52 -29 60
-46 27 -54 -25 -7 -61 7 -134 51 -34 20 -43 22 -43 10 0 -12 93 -65 117 -66
15 -1 44 -28 36 -33 -5 -3 -40 10 -78 29 -61 30 -71 33 -81 19 -18 -24 -48
-18 -113 26 -33 22 -61 43 -61 45 0 2 11 2 25 -2 44 -11 27 13 -25 35 -27 12
-50 26 -50 31 0 15 15 12 55 -11 20 -12 38 -19 41 -17 4 5 -80 59 -136 88 -36
19 -86 29 -100 20 -8 -5 4 -15 36 -30 41 -18 46 -23 32 -31 -21 -12 -57 -3
-142 35 -45 21 -57 23 -53 11 4 -10 1 -15 -11 -15 -24 0 -42 19 -35 38 5 11 3
13 -7 7 -42 -26 -109 9 -129 67 -9 27 -9 29 9 23 32 -10 22 9 -13 25 -40 19
-44 46 -5 42 15 -1 73 -22 130 -47 57 -24 124 -47 151 -50 33 -5 53 -15 67
-32 26 -34 45 -21 25 18 -9 16 -12 29 -8 29 12 0 218 -87 322 -136 102 -48
123 -54 98 -26 -10 10 -17 24 -17 30 0 12 -2 13 -56 15 -16 1 -59 16 -95 34
-35 17 -102 49 -149 71 -47 21 -96 49 -110 61 l-25 21 30 -6 c17 -3 66 -23
110 -44 44 -21 94 -41 110 -45 l30 -6 -24 18 c-14 10 -70 37 -125 60 -54 24
-112 55 -128 70 -50 48 -28 60 33 17 21 -14 43 -24 49 -22 7 2 -11 18 -39 36
-79 52 -118 139 -120 271 -1 35 2 42 15 37 35 -14 64 -18 64 -9 0 5 -19 16
-42 24 l-43 16 -1 67 c-1 78 -13 77 141 11 107 -46 195 -75 230 -75 22 0 60
32 49 42 -7 8 -6 220 2 278 21 166 81 373 145 504 l30 61 -31 -35 c-41 -46
-76 -115 -106 -209 -13 -42 -24 -79 -24 -83 0 -4 -4 -18 -10 -33 -9 -23 -12
-24 -32 -14 l-21 12 21 -27 c20 -26 21 -41 7 -103 -6 -27 -33 -30 -91 -9 -22
7 -57 16 -79 20 -61 11 -30 -12 41 -30 76 -20 104 -38 104 -68 l0 -24 -57 13
c-32 8 -80 21 -108 29 -49 15 -50 15 -28 -3 13 -11 46 -24 75 -31 57 -13 118
-52 118 -75 0 -17 -53 -4 -190 47 -52 19 -111 38 -130 42 l-35 6 25 -20 c14
-11 82 -38 153 -60 105 -34 134 -47 164 -77 20 -20 31 -39 25 -41 -6 -2 -40 6
-76 16 -36 11 -66 16 -66 11 0 -15 81 -49 115 -49 26 0 31 -4 33 -26 3 -40 -4
-43 -68 -28 -69 16 -298 100 -317 116 -7 6 -13 23 -13 39 0 30 16 33 60 9 12
-6 26 -10 33 -7 6 2 -13 16 -42 32 l-53 29 6 50 c8 72 22 82 77 57 24 -12 51
-21 59 -21 24 0 -20 26 -68 40 -47 15 -51 28 -28 95 13 35 18 40 43 37 15 -2
32 -7 38 -11 5 -5 26 -13 45 -19 l35 -12 -24 21 c-14 11 -44 25 -68 32 -38 10
-43 14 -43 40 0 15 9 48 21 73 16 36 24 44 37 39 9 -4 31 -11 48 -15 18 -4 37
-10 43 -14 6 -4 11 -3 11 2 0 11 -40 28 -87 37 -18 4 -33 8 -33 11 0 2 13 40
30 85 51 140 117 241 287 441 48 57 95 112 103 123 31 40 -71 -48 -142 -124
-259 -275 -418 -714 -416 -1151 1 -147 25 -329 58 -440 14 -48 13 -52 -9 -40
-11 5 -27 10 -36 10 -28 0 -6 -19 36 -31 28 -9 41 -19 45 -36 4 -13 5 -26 2
-28 -6 -6 -164 49 -238 83 -36 16 -81 36 -101 45 -23 10 -38 24 -42 39 -12 52
-46 226 -52 268 -13 82 -12 347 2 447 42 323 143 576 305 765 30 35 48 66 48
82 0 24 20 46 145 160 68 62 197 162 260 201 l60 37 -40 -7 c-50 -8 -107 -41
-185 -106 -76 -63 -78 -43 -2 30 107 106 163 149 186 146 11 -2 66 -6 122 -9z
m-516 -358 c-44 -40 -52 -27 -9 15 19 19 36 29 38 24 2 -6 -11 -24 -29 -39z
m-90 -78 c-6 -11 -15 -18 -21 -14 -6 4 -6 11 2 20 17 21 31 17 19 -6z m-46
-82 c-3 -24 -19 -62 -34 -85 -16 -23 -41 -73 -56 -110 -14 -37 -39 -84 -55
-104 -15 -20 -31 -48 -35 -63 -6 -25 -10 -26 -73 -27 -66 0 -65 -9 2 -24 16
-3 31 -15 36 -28 15 -39 5 -45 -52 -30 -55 14 -127 16 -167 4 -22 -7 -19 -9
20 -14 25 -3 71 -9 104 -12 84 -8 95 -16 60 -44 -25 -20 -36 -22 -84 -16 -30
3 -77 8 -105 10 -49 5 -50 5 -20 -9 17 -8 57 -17 88 -20 97 -11 137 -35 96
-57 -21 -11 -85 -8 -122 7 -9 3 -17 1 -17 -5 0 -5 19 -15 43 -22 23 -6 54 -16
69 -21 29 -11 54 -35 46 -44 -12 -12 -390 44 -419 62 -5 3 -9 -10 -10 -28 0
-18 -3 -42 -5 -53 -3 -11 -8 -69 -11 -129 -5 -90 -4 -108 8 -104 8 3 15 13 15
24 1 10 2 25 3 32 1 13 58 12 206 -5 72 -8 62 -6 106 -21 34 -12 87 -57 78
-66 -2 -3 -67 6 -144 19 -77 14 -151 24 -165 24 l-25 0 25 -11 c14 -5 66 -16
115 -24 50 -8 104 -19 121 -25 30 -9 82 -54 73 -63 -2 -3 -31 2 -64 9 -58 14
-84 19 -162 31 -21 3 -53 9 -70 14 -18 5 -33 5 -33 0 0 -14 73 -38 155 -50
143 -21 193 -43 159 -71 -20 -16 -57 -14 -155 11 -83 22 -159 26 -159 10 0 -5
6 -10 13 -11 6 0 19 -2 27 -3 8 -2 44 -6 80 -10 134 -14 180 -29 201 -67 10
-20 9 -21 -38 -14 -26 3 -64 10 -83 14 -63 16 -122 22 -116 12 6 -9 72 -26
141 -36 75 -10 115 -32 115 -63 0 -16 -8 -15 -139 13 -110 24 -131 13 -25 -12
107 -26 184 -59 184 -80 0 -11 -5 -13 -17 -8 -40 17 -63 17 -63 2 0 -17 21
-27 55 -27 27 0 52 -25 35 -35 -11 -7 -89 1 -118 13 -10 3 -13 1 -8 -6 4 -7
31 -19 61 -27 57 -17 114 -54 84 -55 -9 0 -60 7 -115 16 -120 19 -221 29 -214
21 3 -3 21 -9 40 -12 19 -3 46 -7 60 -10 14 -2 52 -7 85 -10 90 -9 175 -41
175 -66 0 -10 -33 -5 -142 22 -94 23 -216 30 -204 10 5 -7 46 -15 161 -27 59
-7 175 -33 197 -45 27 -14 14 -26 -22 -21 -37 5 -41 -15 -5 -24 52 -13 14 -16
-54 -4 -72 12 -102 36 -36 28 19 -2 35 -1 35 3 0 12 -96 28 -194 33 -48 2 -92
8 -96 13 -13 13 -40 101 -40 129 0 25 2 25 43 18 51 -9 88 -7 100 5 10 10 -13
15 -102 25 -40 4 -82 28 -70 41 13 12 128 7 222 -10 32 -6 37 10 5 18 -13 3
-57 9 -98 12 -89 8 -109 12 -132 33 -27 23 -22 40 15 50 l32 9 -35 10 c-33 9
-35 12 -47 79 -7 38 -15 91 -18 118 -2 27 -7 51 -10 54 -13 13 -9 -204 5 -277
16 -79 68 -249 91 -293 10 -20 19 -44 19 -51 0 -9 -41 -31 -102 -56 -119 -50
-110 -54 -159 73 -36 94 -32 113 33 144 52 25 22 31 -37 6 -20 -8 -39 -13 -42
-11 -6 7 -42 160 -59 252 -8 44 -17 130 -21 192 -3 67 -10 110 -16 106 -5 -3
-7 -27 -4 -54 5 -46 4 -49 -31 -76 -20 -15 -61 -53 -91 -85 l-55 -58 -13 31
c-19 46 -16 98 8 133 12 17 51 56 87 86 36 30 134 121 217 201 83 80 172 158
198 173 26 15 47 31 47 34 0 4 29 37 64 75 61 64 68 68 123 76 47 7 51 9 21
10 -21 0 -38 5 -38 9 0 15 41 52 64 58 16 4 26 15 30 34 6 32 39 59 77 62 20
2 25 6 21 24 -5 27 33 55 77 56 26 1 30 4 26 19 -7 20 7 51 34 78 22 22 104
80 114 81 4 0 5 -19 1 -42z m1062 -604 c25 -115 72 -333 105 -484 238 -1094
267 -1234 255 -1239 -13 -5 -135 128 -141 154 -3 11 -35 198 -70 415 -36 217
-67 402 -69 410 -3 8 -7 38 -11 65 -3 28 -8 59 -10 70 -3 11 -7 34 -10 50 -10
62 -75 441 -80 465 -3 14 -15 81 -29 150 -17 88 -21 132 -14 149 6 17 12 21
19 14 6 -6 31 -104 55 -219z m-92 79 c4 -21 17 -96 31 -168 13 -71 35 -193 49
-270 14 -77 28 -153 31 -170 3 -16 8 -46 11 -65 3 -19 14 -80 24 -135 15 -80
103 -577 125 -710 3 -16 7 -39 10 -50 2 -11 0 -26 -4 -34 -9 -14 -9 -14 -36
31 -5 9 -41 56 -78 105 -125 162 -248 454 -272 643 -4 30 -8 57 -10 60 -7 12
-17 175 -16 265 2 180 15 265 67 428 37 114 57 134 68 70z m-1394 -194 c93
-21 146 -44 154 -65 9 -22 -42 -17 -212 22 -199 45 -194 43 -157 60 35 16 94
11 215 -17z m-40 -59 c52 -11 110 -26 128 -33 33 -11 60 -43 48 -54 -3 -4 -45
4 -94 15 -48 12 -103 22 -122 22 -55 -1 -18 -15 100 -40 58 -12 109 -26 115
-31 9 -9 6 -10 -60 -14 -16 -1 -73 8 -125 21 -52 13 -119 24 -148 24 -66 0
-66 19 -1 36 l44 11 -43 8 c-49 9 -65 31 -36 52 22 16 55 14 194 -17z m-505
-372 c4 -43 2 -84 -3 -99 -6 -15 -7 -30 -2 -35 24 -26 62 -143 62 -191 0 -38
4 -53 14 -53 20 0 17 -40 -7 -85 -32 -62 -40 -85 -29 -85 6 0 17 18 26 39 9
22 24 41 35 44 14 4 19 1 16 -7 -3 -8 1 -26 9 -41 19 -37 18 -44 -12 -109 -14
-32 -23 -60 -20 -63 5 -5 20 24 40 81 8 23 21 12 30 -24 3 -14 3 -19 0 -12 -3
6 -9 12 -13 12 -11 0 -31 -47 -31 -72 0 -14 -4 -18 -16 -14 -9 4 -23 1 -30 -5
-11 -9 -14 -5 -14 24 0 19 7 54 15 77 18 50 18 50 6 50 -4 0 -18 -24 -30 -52
-17 -41 -24 -49 -31 -38 -5 8 -7 24 -4 34 5 15 3 18 -10 13 -12 -5 -16 0 -17
16 -2 41 3 82 12 100 6 10 6 17 0 17 -5 0 -12 -11 -15 -25 -4 -14 -13 -25 -22
-25 -13 0 -14 9 -9 53 4 28 11 60 17 70 5 10 6 22 2 25 -4 4 -8 3 -11 -3 -12
-32 -30 -59 -42 -63 -21 -7 -6 86 20 121 11 16 19 30 17 32 -7 7 -26 -11 -46
-44 l-21 -34 -6 26 c-5 18 -1 37 14 60 28 45 26 59 -3 24 -18 -23 -25 -26 -34
-15 -8 11 -8 21 3 42 19 36 19 52 1 37 -12 -10 -17 -8 -27 11 -22 40 -14 107
18 152 26 37 113 106 133 106 5 0 11 -33 15 -72z m-246 20 c8 -13 18 -61 22
-109 15 -157 117 -422 229 -592 137 -209 345 -415 572 -567 95 -64 94 -73 -30
-183 -18 -16 -32 -35 -32 -42 0 -15 -129 -27 -145 -13 -23 21 -16 207 11 301
3 9 1 17 -5 17 -9 0 -14 -18 -26 -85 -15 -91 -31 -113 -68 -93 -32 17 -47 2
-47 -47 0 -50 9 -45 -101 -50 -78 -3 -172 16 -297 61 -70 25 -168 60 -218 78
-110 40 -115 42 -107 63 4 11 3 14 -5 9 -7 -4 -12 -14 -12 -22 0 -17 -5 -17
-30 -4 -30 16 -43 46 -30 73 9 17 6 16 -13 -6 l-24 -29 -32 56 c-17 31 -31 62
-31 69 0 7 23 23 50 34 49 21 51 21 62 3 11 -17 14 -15 40 17 15 20 26 39 23
43 -8 13 15 118 45 210 15 47 31 100 34 119 l6 35 -25 -24 c-29 -27 -40 -58
-55 -160 -6 -41 -18 -93 -26 -116 -13 -37 -18 -41 -65 -50 -49 -11 -51 -10
-60 15 -6 14 -15 48 -21 76 -12 59 -29 93 -56 118 -19 18 -20 17 -41 -9 -26
-32 -29 -46 -35 -146 -4 -64 -3 -78 9 -78 8 0 15 9 15 20 0 11 7 20 15 20 8 0
15 -9 15 -19 0 -24 -68 -106 -87 -105 -27 3 -165 89 -208 130 -55 53 -84 110
-90 174 l-4 49 72 63 c98 86 134 118 171 153 18 17 61 57 97 90 35 32 100 93
144 134 44 41 114 107 155 146 41 38 105 98 142 133 36 34 70 62 75 62 4 0 14
-10 22 -22z m-799 -224 c0 -8 -4 -12 -10 -9 -5 3 -10 13 -10 21 0 8 5 12 10 9
6 -3 10 -13 10 -21z m-15 -34 c3 -5 3 -15 -1 -21 -6 -11 -23 6 -24 24 0 10 18
9 25 -3z m-64 -177 c0 -5 2 -17 4 -27 5 -26 -12 -56 -32 -56 -10 0 -14 6 -10
20 3 11 1 23 -5 26 -5 3 -2 14 8 25 18 20 33 25 35 12z m-55 -80 c-11 -11 -17
4 -9 23 7 18 8 18 11 1 2 -10 1 -21 -2 -24z m-28 -24 c15 -29 12 -101 -5 -107
-8 -2 -13 6 -13 23 0 15 -4 24 -10 20 -5 -3 -10 -18 -10 -33 0 -19 -3 -23 -9
-13 -8 13 -7 34 5 109 6 38 22 38 42 1z m1767 21 c-18 -7 -104 -3 -114 6 -2 2
27 4 65 3 46 0 62 -3 49 -9z m85 -55 c124 -19 270 -62 270 -79 0 -8 -25 -96
-55 -197 -60 -204 -117 -430 -110 -437 12 -12 79 192 99 302 19 100 77 269
102 297 9 11 28 19 42 19 24 0 24 -1 18 -62 -3 -35 -8 -76 -11 -93 -3 -16 -10
-56 -16 -88 -5 -32 -32 -140 -60 -240 -27 -100 -54 -199 -60 -219 -14 -52 -41
-50 -95 6 -23 24 -51 49 -63 55 l-21 12 25 48 c21 42 22 51 10 61 -12 10 -17
7 -25 -15 -5 -14 -10 -30 -10 -35 0 -33 -66 -7 -139 56 -68 59 -223 255 -260
331 -19 37 -47 87 -63 110 -59 81 -9 147 132 173 44 9 220 5 290 -5z m-485
-219 c8 -54 13 -101 11 -103 -8 -8 -35 54 -42 95 -6 38 2 119 11 110 2 -2 11
-48 20 -102z m951 72 c25 -11 26 -15 19 -63 -3 -27 -22 -120 -41 -205 -47
-207 -62 -290 -53 -284 15 9 57 165 83 304 34 183 43 210 66 210 18 0 167 -72
181 -88 6 -6 -8 -141 -36 -347 -5 -42 -14 -112 -20 -174 -2 -20 -7 -79 -11
-131 -3 -52 -10 -99 -15 -104 -4 -5 -26 -9 -48 -10 -23 -1 -36 3 -31 8 5 5 6
16 2 25 -5 14 -3 14 10 3 14 -11 19 -10 32 10 8 13 18 39 21 59 7 36 6 37 -22
35 -45 -4 -50 -11 -63 -83 -16 -94 -23 -99 -77 -68 -24 15 -51 25 -61 22 -12
-2 -4 -9 23 -21 55 -24 78 -62 30 -50 -20 5 -31 -1 -56 -27 l-32 -34 -18 40
c-23 53 -23 64 4 75 22 9 22 9 -3 11 -44 3 -64 -2 -107 -27 -45 -26 -58 -30
-48 -14 3 5 -5 21 -19 35 -28 28 -77 33 -120 13 -56 -25 -83 -144 -51 -221 15
-36 58 -77 81 -77 7 0 15 -4 19 -9 8 -14 -46 -3 -72 15 -57 36 -78 133 -49
221 34 103 115 137 190 80 41 -32 41 -31 23 13 -16 36 -11 80 8 80 7 0 26 -14
42 -31 36 -39 63 -55 63 -36 0 7 -11 20 -25 27 -18 10 -22 17 -15 24 8 8 18 3
36 -18 14 -15 28 -25 32 -21 4 4 -8 19 -27 34 -77 59 -93 79 -81 102 26 48 54
147 105 379 80 360 73 344 131 318z m154 -18 c8 -5 11 -12 8 -15 -4 -4 -17 0
-30 9 -24 17 -5 23 22 6z m55 0 c3 -5 -1 -10 -9 -10 -9 0 -16 5 -16 10 0 6 4
10 9 10 6 0 13 -4 16 -10z m-2561 -120 c3 -41 8 -90 12 -107 5 -34 -9 -46 -20
-16 -4 9 -9 55 -12 102 -3 47 -6 88 -6 91 -1 18 3 23 11 15 5 -6 12 -44 15
-85z m2866 -35 c60 -30 87 -32 95 -5 7 23 23 25 59 9 27 -13 47 -45 21 -35
-22 8 -18 -3 8 -28 12 -11 34 -21 48 -22 41 -2 91 -31 164 -96 38 -33 83 -69
100 -80 l30 -19 -35 7 c-19 3 -69 23 -110 44 -41 20 -92 43 -112 49 -43 14
-47 24 -16 38 20 9 18 11 -28 33 -27 13 -61 37 -76 53 -21 22 -28 25 -29 13
-1 -9 -3 -20 -4 -26 -1 -5 -3 -14 -4 -20 0 -5 -10 -1 -20 9 -11 11 -54 36 -95
55 -42 19 -76 37 -76 40 0 13 33 5 80 -19z m-2763 -68 c3 -23 2 -37 -5 -37
-12 0 -19 21 -21 65 -2 41 18 19 26 -28z m2952 -99 c97 -44 239 -107 316 -140
136 -59 170 -81 161 -104 -2 -6 0 -17 5 -25 6 -10 9 -6 9 15 0 26 2 28 28 22
15 -4 45 -20 67 -35 35 -25 40 -35 43 -72 1 -24 16 -92 32 -152 55 -197 35
-289 -45 -209 -42 41 -62 94 -79 207 -24 160 -29 180 -38 150 -11 -40 -2 -122
24 -218 21 -77 21 -78 2 -98 -23 -22 -60 -26 -161 -14 l-72 7 16 24 c21 33 10
89 -22 110 -14 9 -25 22 -25 28 0 7 16 39 36 72 68 110 86 144 82 156 -9 25
-66 -48 -82 -103 -12 -40 -97 -193 -133 -238 -8 -10 -15 11 -18 55 -2 27 -4
55 -4 62 -2 22 -40 13 -71 -18 -29 -28 -30 -32 -20 -72 5 -24 10 -52 10 -63 0
-18 -2 -17 -26 6 -40 40 -41 87 -5 228 31 119 37 197 16 195 -21 -2 -35 -52
-35 -126 0 -66 -29 -233 -45 -259 -3 -4 -25 -1 -49 7 l-44 15 -2 87 c-1 48 -3
98 -5 112 -2 14 -4 67 -4 118 -1 96 -10 113 -31 62 -10 -25 -10 -45 4 -113 21
-106 21 -153 0 -161 -9 -3 -20 -3 -25 0 -6 3 -16 3 -23 1 -11 -4 -12 -17 -4
-58 5 -29 6 -55 1 -60 -5 -5 -29 -2 -56 7 -26 9 -66 14 -88 12 l-41 -4 6 76
c4 41 9 91 11 110 6 41 12 101 20 190 3 36 8 74 10 85 2 11 7 58 11 105 4 47
8 96 9 110 2 14 3 30 4 37 1 15 107 -26 330 -129z m1961 112 c0 -5 1 -13 3
-17 1 -5 -15 -8 -35 -9 -40 -1 -46 4 -26 24 15 15 58 16 58 2z m-5050 -52 c-1
-29 -19 -68 -32 -68 -2 0 0 23 6 50 11 57 26 67 26 18z m206 -45 c6 -20 7 -21
22 -7 14 15 17 14 29 -9 8 -17 30 -31 64 -42 32 -11 57 -27 67 -44 12 -18 24
-25 39 -23 13 2 48 -12 80 -32 32 -19 119 -59 193 -87 74 -29 158 -65 186 -81
29 -15 69 -30 90 -34 49 -7 141 -30 219 -54 33 -11 85 -26 116 -35 l57 -16
-14 -47 c-8 -26 -14 -48 -14 -49 2 -23 -3 -33 -19 -33 -36 0 -346 107 -640
221 -237 92 -295 118 -302 136 -5 15 -14 21 -23 17 -9 -3 -34 8 -58 25 -23 17
-50 31 -59 31 -12 0 -16 6 -12 21 4 12 -3 32 -16 49 -11 16 -21 34 -21 40 0 5
-4 10 -10 10 -13 0 -13 -16 -1 -39 5 -9 6 -23 1 -30 -6 -11 -10 -10 -18 5 -7
14 -7 42 1 92 10 64 13 71 25 55 7 -10 15 -28 18 -40z m399 22 c0 -10 -6 -20
-12 -22 -8 -3 -13 5 -13 22 0 17 5 25 13 23 6 -3 12 -13 12 -23z m2469 4 c-3
-5 -10 -7 -15 -3 -5 3 -7 10 -3 15 3 5 10 7 15 3 5 -3 7 -10 3 -15z m-2514
-126 c35 -55 37 -63 11 -56 -35 9 -64 49 -57 77 3 15 9 26 11 26 3 0 19 -21
35 -47z m-574 19 c14 -9 32 -63 27 -79 -7 -21 -23 -15 -23 9 0 20 -1 21 -20 3
-25 -23 -25 -32 1 -40 17 -6 19 -12 14 -33 -6 -25 -30 -52 -45 -52 -4 0 -12
17 -18 38 -9 31 -9 50 3 96 8 31 15 59 15 61 0 8 34 5 46 -3z m49 -12 c3 -5 1
-10 -4 -10 -6 0 -11 5 -11 10 0 6 2 10 4 10 3 0 8 -4 11 -10z m5125 -40 c-24
-15 -37 -11 -16 5 11 8 22 12 25 9 3 -3 -1 -9 -9 -14z m-52 -99 c-3 -33 0 -42
17 -49 19 -9 19 -10 2 -17 -26 -11 -67 11 -67 34 0 11 8 36 17 56 21 44 37 32
31 -24z m-2454 -8 c-1 -19 -8 -66 -15 -104 -9 -49 -9 -76 -2 -92 8 -17 7 -29
-3 -48 -18 -33 -17 -59 4 -75 15 -12 13 -13 -21 -14 l-39 0 6 73 c11 128 22
195 43 266 16 58 32 55 27 -6z m2540 -30 c17 -50 21 -149 7 -171 -6 -10 -11
-5 -19 18 -9 25 -15 30 -32 25 -16 -5 -20 -2 -20 19 0 41 10 58 26 45 8 -6 14
-19 14 -28 1 -14 2 -14 11 2 8 13 4 30 -13 70 -26 56 -27 97 -3 77 7 -6 21
-32 29 -57z m-5204 -64 c0 -22 -4 -38 -9 -35 -11 7 -23 65 -15 77 11 19 24 -3
24 -42z m1984 15 c23 -60 -17 -172 -69 -189 -22 -7 -29 -15 -27 -28 4 -20 -19
-107 -28 -107 -12 0 -70 67 -64 73 4 4 0 7 -9 7 -8 0 -32 -15 -51 -34 -28 -26
-36 -41 -36 -70 0 -40 5 -43 31 -20 25 23 41 8 38 -37 -6 -70 19 -54 36 25 l6
29 26 -24 c26 -24 53 -76 53 -103 0 -16 -51 -31 -90 -27 -67 8 -121 73 -128
157 -8 99 32 143 145 158 78 10 112 46 116 123 2 32 7 64 11 71 10 17 33 15
40 -4z m1882 -62 c35 -25 44 -37 39 -52 -3 -11 3 -59 15 -107 31 -130 31 -130
17 -141 -7 -6 -32 -15 -55 -20 l-42 -10 -10 37 c-29 103 -60 244 -66 294 l-7
57 32 -13 c17 -7 52 -28 77 -45z m-3366 -10 c-14 -5 -30 16 -30 38 1 10 7 7
21 -10 14 -17 17 -26 9 -28z m4264 40 c11 -18 16 -72 7 -72 -14 0 -23 18 -25
51 -2 28 7 38 18 21z m-4208 -27 c20 -31 15 -51 -8 -33 -20 16 -34 58 -19 58
6 0 18 -11 27 -25z m1513 -9 c46 -38 40 -54 -14 -36 -41 13 -59 6 -46 -18 4
-9 6 -23 3 -31 -3 -10 3 -11 28 -6 25 5 31 4 28 -6 -6 -19 -72 -23 -87 -6 -9
11 -7 25 9 62 11 25 20 53 20 61 0 22 15 17 59 -20z m3038 -13 c10 -26 -12
-36 -51 -22 -39 14 -44 23 -20 37 21 12 64 3 71 -15z m-4473 -15 c5 -15 6 -31
2 -35 -9 -10 -46 33 -46 54 0 25 34 10 44 -19z m73 -19 c16 -30 16 -49 1 -49
-20 0 -48 32 -48 56 0 30 31 26 47 -7z m-635 -56 c8 -10 7 -13 -5 -13 -8 0
-20 13 -25 29 -12 34 -2 53 11 19 4 -12 13 -28 19 -35z m443 26 c18 -34 14
-49 -9 -30 -16 13 -28 61 -15 61 5 0 16 -14 24 -31z m3475 0 c19 -12 62 -43
95 -68 33 -26 69 -52 79 -58 18 -10 16 -12 -20 -31 -41 -21 -151 -49 -159 -40
-13 12 -51 218 -41 218 6 0 27 -10 46 -21z m730 2 c0 -5 -13 -11 -30 -13 -35
-5 -40 9 -7 21 23 9 37 6 37 -8z m-4133 -26 c9 -19 14 -38 10 -41 -15 -15 -64
47 -52 66 11 18 25 10 42 -25z m201 23 c5 -7 13 -24 17 -38 7 -23 7 -24 -15
-9 -13 9 -30 25 -38 37 -13 20 -13 22 6 22 11 0 24 -6 30 -12z m796 -9 c38
-30 47 -52 36 -86 -14 -40 -18 -79 -19 -157 l-1 -69 -39 7 c-73 11 -127 41
-140 77 -28 82 1 192 61 229 42 25 69 25 102 -1z m276 11 c0 -5 -2 -10 -4 -10
-3 0 -8 5 -11 10 -3 6 -1 10 4 10 6 0 11 -4 11 -10z m-952 -52 c29 -28 28 -38
-4 -38 -45 0 -95 44 -79 70 8 12 54 -6 83 -32z m3902 -5 c0 -7 -10 -13 -23
-13 -41 0 -66 44 -29 53 20 4 52 -20 52 -40z m-4620 -52 c0 -10 -6 -8 -20 7
-25 26 -25 26 -43 7 -24 -24 -30 9 -6 36 10 12 19 27 19 33 1 16 50 -66 50
-83z m495 59 c27 0 51 -19 60 -48 6 -20 4 -22 -12 -13 -10 5 -35 13 -55 16
-38 6 -58 27 -58 60 0 15 2 15 22 1 12 -9 32 -16 43 -16z m3774 -14 c27 -32
-95 -98 -150 -81 -17 6 -18 9 -7 23 22 26 100 72 124 72 12 0 27 -6 33 -14z
m-3975 -15 c40 -9 46 -31 9 -31 -19 0 -38 9 -54 27 -21 23 -22 25 -4 18 11 -4
33 -10 49 -14z m520 -7 c8 -22 8 -34 -2 -34 -11 0 -52 35 -52 44 0 13 48 5 54
-10z m-156 -19 c14 4 21 -4 31 -31 16 -44 11 -50 -22 -24 -15 12 -37 20 -53
18 -22 -2 -29 2 -35 24 -9 35 -2 40 33 22 16 -8 37 -13 46 -9z m250 -29 c5
-23 -31 -20 -54 5 -15 17 -16 22 -4 29 18 11 53 -10 58 -34z m-525 28 c9 -3
13 -13 10 -24 -4 -15 -9 -17 -23 -10 -40 21 -29 50 13 34z m1481 -3 c5 -7 -20
-97 -30 -109 -1 -2 -23 0 -48 3 l-45 7 19 38 c28 56 87 90 104 61z m-1429 -9
c6 -4 18 -26 27 -49 16 -41 16 -42 -2 -33 -23 12 -29 22 -40 60 -9 30 -4 36
15 22z m535 -11 c7 -13 7 -22 0 -26 -15 -9 -30 4 -30 26 0 25 16 25 30 0z
m3870 -16 c-7 -8 -19 -15 -27 -15 -11 0 -10 5 4 24 11 14 22 21 27 16 5 -6 4
-15 -4 -25z m-4050 -2 c13 -9 40 -19 59 -22 32 -6 36 -10 39 -39 4 -38 -15
-43 -24 -7 -7 27 -24 34 -24 10 0 -19 -3 -19 -49 5 -21 10 -41 16 -45 13 -7
-8 -35 27 -36 45 0 18 51 15 80 -5z m-272 -16 c2 -11 -2 -14 -17 -10 -12 3
-17 11 -14 19 7 18 27 13 31 -9z m518 15 c6 -4 13 -15 17 -25 10 -27 -21 -18
-41 11 -12 18 -12 22 -1 22 8 0 19 -4 25 -8z m1022 -63 l23 -56 -22 -37 c-29
-49 -55 -63 -63 -33 -11 41 -6 116 10 157 19 47 22 45 52 -31z m371 52 c22
-17 23 -20 11 -75 -6 -31 -10 -94 -9 -138 3 -80 3 -82 -22 -89 -33 -8 -93 -3
-119 11 -14 7 -20 21 -20 44 0 18 -5 47 -11 65 -29 83 37 201 112 201 19 0 45
-9 58 -19z m1671 -3 c0 -13 -32 -6 -37 9 -3 7 3 9 16 6 12 -3 21 -10 21 -15z
m150 12 c0 -5 -1 -10 -3 -10 -1 0 -18 -4 -37 -10 l-35 -9 24 19 c25 21 51 26
51 10z m60 -10 c0 -14 6 -20 16 -18 10 2 19 -3 21 -9 3 -7 -2 -13 -11 -13 -9
0 -16 -5 -16 -11 0 -7 9 -9 21 -6 20 5 39 -17 25 -30 -8 -9 -84 18 -89 31 -6
17 12 76 23 76 6 0 10 -9 10 -20z m-1201 -46 c-21 -26 -33 1 -13 29 18 23 19
24 22 6 2 -11 -2 -27 -9 -35z m-2513 0 c4 -14 3 -28 -1 -32 -10 -10 -45 36
-45 59 0 17 3 18 20 9 11 -6 23 -22 26 -36z m525 36 c26 -14 25 -50 -1 -50
-21 0 -45 34 -35 50 8 13 12 12 36 0z m1527 -5 l39 -16 -9 -62 c-10 -70 -5
-186 10 -214 9 -16 5 -18 -30 -20 -29 -1 -37 2 -29 10 18 18 13 24 -24 25 -19
1 -44 6 -55 12 -48 26 -64 115 -33 192 35 90 57 102 131 73z m1400 -16 c5 -26
-117 -66 -163 -55 -33 8 -25 20 33 51 54 29 125 31 130 4z m-1155 -12 c26 -17
26 -17 11 -59 -20 -54 -20 -159 0 -198 8 -16 11 -32 7 -34 -4 -3 -34 -4 -66
-2 -109 5 -155 49 -155 148 0 124 113 204 203 145z m2015 -2 c14 -31 16 -65 3
-65 -12 0 -23 29 -15 41 3 5 1 9 -5 9 -18 0 -24 -22 -22 -79 2 -69 -18 -58
-26 14 l-6 46 -34 -71 c-33 -69 -52 -87 -55 -52 -7 86 19 156 55 147 13 -3 34
3 52 15 38 25 39 25 53 -5z m-4243 -37 c6 -23 4 -26 -13 -21 -19 5 -36 56 -23
68 8 9 29 -18 36 -47z m306 25 c7 -18 6 -30 -1 -37 -12 -12 -35 8 -45 42 -10
34 32 30 46 -5z m3649 -13 c0 -20 -36 -67 -47 -63 -7 3 -16 -2 -19 -11 -3 -9
-15 -16 -26 -16 -20 0 -19 -1 2 -37 30 -50 43 -103 25 -103 -18 0 -27 16 -30
52 -3 35 -15 51 -15 20 0 -14 -6 -22 -16 -22 -28 0 -12 78 32 152 39 65 39 65
67 51 15 -7 27 -18 27 -23z m-4070 10 c0 -5 -6 -10 -14 -10 -8 0 -18 5 -21 10
-3 6 3 10 14 10 12 0 21 -4 21 -10z m1645 -57 c-4 -38 -8 -70 -10 -72 -9 -9
-26 14 -36 50 -11 36 -10 41 11 64 37 39 43 32 35 -42z m-1465 45 c0 -7 3 -24
7 -37 4 -18 2 -22 -8 -19 -8 3 -14 15 -14 27 0 12 -7 26 -15 31 -12 8 -11 10
8 10 12 0 22 -6 22 -12z m320 -8 c14 -25 5 -41 -18 -33 -35 13 -44 53 -12 53
10 0 24 -9 30 -20z m2112 -7 c-47 -70 -61 -168 -29 -216 25 -38 21 -47 -18
-47 -31 0 -35 3 -40 33 -16 85 -10 129 20 159 23 23 23 26 9 46 -14 20 -41 22
-29 2 8 -13 -6 -40 -20 -40 -16 0 -55 47 -55 66 0 19 70 18 97 -1 20 -14 23
-14 33 5 6 11 20 20 31 20 20 0 20 0 1 -27z m1514 19 c24 -16 35 -51 23 -74
-9 -18 -8 -24 9 -37 11 -9 30 -35 41 -59 l22 -43 -43 2 c-24 1 -49 0 -57 -2
-19 -5 -52 62 -56 116 -2 29 3 52 16 74 19 32 26 36 45 23z m-3838 -28 c7 -2
16 -13 20 -25 7 -18 10 -19 20 -6 7 8 22 13 32 10 20 -5 24 -14 21 -43 -1 -10
5 -7 16 8 14 17 21 20 30 11 6 -6 37 -13 67 -14 60 -3 81 -14 89 -45 6 -25
-14 -26 -73 -5 -23 8 -62 15 -87 15 -27 0 -63 10 -93 25 -27 14 -59 25 -71 25
-24 0 -48 26 -49 52 0 14 5 15 33 6 17 -6 38 -13 45 -14z m335 -12 c27 -24 22
-44 -9 -32 -14 6 -36 10 -50 10 -23 0 -48 34 -38 52 6 10 76 -12 97 -30z m753
27 c11 -18 8 -103 -5 -126 -11 -22 -48 -21 -63 1 -11 16 -10 95 2 117 12 21
54 26 66 8z m1372 -13 c24 -8 26 -16 16 -66 -7 -30 -9 -32 -41 -27 -19 3 -41
3 -49 0 -23 -9 -17 -51 11 -69 26 -17 45 -12 45 11 0 9 6 12 15 8 9 -3 14 -8
11 -10 -2 -3 2 -23 10 -45 19 -55 19 -56 -26 -69 -81 -24 -140 33 -142 135 -3
103 63 161 150 132z m189 0 c8 -7 -105 -153 -124 -160 -21 -9 -43 17 -43 52 0
43 38 94 82 111 21 7 77 6 85 -3z m-537 -36 c-17 -32 -29 -32 -17 -1 6 17 15
28 19 25 4 -3 4 -14 -2 -24z m1137 2 c4 -8 -3 -22 -17 -32 -13 -9 -20 -21 -17
-27 3 -5 2 -15 -3 -23 -7 -12 -12 -12 -22 -2 -20 20 -25 14 -26 -35 l-1 -48
20 33 c12 17 24 32 27 32 11 -1 62 -121 56 -131 -9 -15 -58 -10 -91 11 -63 38
-95 150 -59 205 27 41 120 53 133 17z m108 -3 c20 -38 13 -59 -20 -59 -29 0
-29 -1 -14 -34 7 -14 17 -22 25 -19 7 2 19 -8 28 -24 8 -15 24 -36 36 -46 28
-24 11 -47 -35 -47 -27 0 -34 5 -39 26 -5 19 -12 24 -29 22 -21 -3 -22 1 -21
57 2 152 1 147 46 154 4 0 15 -13 23 -30z m140 1 c20 -22 13 -38 -22 -51 -34
-13 -29 -54 7 -54 23 0 25 -4 26 -48 1 -41 -1 -47 -15 -42 -9 4 -28 9 -43 12
-27 5 -43 39 -41 86 0 9 1 41 2 70 l1 53 34 -4 c19 -2 42 -12 51 -22z m120
-10 c0 -22 -4 -40 -10 -40 -5 0 -24 -17 -42 -37 l-32 -38 -1 37 c0 66 30 118
70 118 11 0 15 -10 15 -40z m-3918 15 c0 -8 -6 -15 -14 -15 -7 0 -13 7 -13 15
0 8 6 15 13 15 8 0 14 -7 14 -15z m3361 9 c27 -8 28 -22 5 -63 -14 -24 -23
-29 -40 -25 -31 8 -39 -16 -25 -77 6 -27 9 -56 5 -64 -5 -14 -8 -14 -27 3 -11
11 -31 25 -43 31 -30 15 -31 78 -3 136 27 56 68 75 128 59z m-177 -14 c16 -9
17 -14 8 -32 -6 -12 -12 -63 -13 -114 -1 -106 3 -103 -86 -82 -59 13 -73 32
-73 93 0 100 90 174 164 135z m-721 -21 c21 -37 -16 -109 -55 -109 -15 0 -3
78 17 110 16 25 24 25 38 -1z m-2300 -19 c0 -5 -2 -10 -4 -10 -3 0 -8 5 -11
10 -3 6 -1 10 4 10 6 0 11 -4 11 -10z m70 -12 c0 -7 3 -24 7 -37 8 -32 -12
-20 -32 20 -15 27 -14 29 5 29 11 0 20 -6 20 -12z m1362 -28 c13 -22 31 -43
41 -46 19 -6 22 -20 6 -30 -18 -11 -97 -6 -124 8 l-25 14 32 47 c18 26 36 47
40 47 4 0 18 -18 30 -40z m2796 18 c-4 -33 -35 -36 -35 -3 0 18 5 25 19 25 14
0 19 -6 16 -22z m-4090 -6 c3 -9 -2 -13 -14 -10 -9 1 -19 9 -22 16 -3 9 2 13
14 10 9 -1 19 -9 22 -16z m385 1 c31 -5 37 -10 37 -29 0 -21 -2 -23 -27 -13
-15 5 -38 9 -52 7 -22 -3 -27 1 -29 26 -3 24 -1 28 15 21 10 -4 35 -9 56 -12z
m3615 -15 c17 -35 6 -61 -19 -47 -13 7 -19 21 -19 45 0 41 18 42 38 2z m-4374
0 c20 -28 20 -48 1 -48 -16 0 -35 30 -35 54 0 23 16 20 34 -6z m261 2 c3 -5
-1 -10 -9 -10 -9 0 -16 5 -16 10 0 6 4 10 9 10 6 0 13 -4 16 -10z m2812 -17
c0 -16 3 -49 7 -75 7 -46 7 -46 -26 -56 -34 -11 -61 -15 -90 -13 -15 1 -13 9
13 69 41 93 98 137 96 75z m-2211 -9 c9 -37 -10 -51 -30 -23 -22 31 -20 49 4
49 13 0 22 -9 26 -26z m653 -30 c18 -41 -7 -46 -43 -7 -18 20 -22 30 -15 40
14 16 43 -1 58 -33z m-941 5 c-7 -4 -18 -3 -26 3 -10 9 -10 13 0 19 7 4 18 3
26 -3 10 -9 10 -13 0 -19z m689 25 c-3 -3 -12 -4 -19 -1 -8 3 -5 6 6 6 11 1
17 -2 13 -5z m-210 -20 c19 -3 41 -16 54 -32 l21 -27 -22 -3 c-12 -2 -27 4
-35 15 -15 20 -29 14 -19 -10 6 -17 54 -37 90 -37 19 0 24 -5 24 -25 0 -23 -3
-25 -27 -18 -16 4 -43 8 -60 8 -27 0 -33 4 -33 21 0 36 -36 72 -80 79 -22 4
-50 15 -62 25 -22 17 -21 17 47 13 39 -2 84 -6 102 -9z m2957 -21 c24 -21 45
-41 45 -45 2 -19 -97 2 -100 21 0 3 -3 18 -5 34 -6 36 6 34 60 -10z m166 -25
c0 -12 -7 -18 -24 -18 -25 0 -36 16 -36 56 l0 25 30 -23 c17 -12 30 -30 30
-40z m-3518 35 c24 -22 24 -53 -1 -53 -23 0 -56 56 -37 64 18 7 18 7 38 -11z
m1925 -18 c22 -37 16 -47 -24 -39 -21 4 -41 8 -45 10 -12 7 4 43 21 47 27 6
35 3 48 -18z m-1859 3 c19 -19 15 -48 -7 -48 -19 0 -31 18 -31 46 0 17 22 18
38 2z m2217 -8 c16 -18 16 -20 2 -20 -9 0 -21 9 -27 20 -6 11 -7 20 -2 20 5 0
17 -9 27 -20z m487 -14 c5 -47 0 -60 -18 -45 -19 15 -19 79 0 79 8 0 15 -14
18 -34z m-2632 17 c0 -5 3 -18 6 -30 5 -17 2 -23 -9 -23 -16 0 -37 28 -37 49
0 12 40 15 40 4z m419 -15 c6 -17 4 -24 -8 -29 -28 -10 -51 2 -51 27 0 33 47
34 59 2z m59 -17 c2 -23 0 -32 -9 -29 -20 7 -33 34 -26 52 11 27 32 13 35 -23z
m532 9 c0 -5 -5 -12 -11 -16 -12 -7 -31 15 -23 28 6 9 34 -1 34 -12z m300 0
c14 -11 22 -20 18 -20 -14 0 -58 23 -58 32 0 13 13 9 40 -12z m-1728 -5 c26
-1 51 -4 55 -8 3 -4 16 -7 27 -7 25 0 66 -26 66 -42 0 -6 -10 -8 -22 -5 -13 3
-52 9 -88 12 -82 8 -130 20 -155 39 -20 15 -20 15 1 10 12 -3 25 -1 29 6 4 6
14 8 24 4 9 -4 37 -8 63 -9z m508 -32 c0 -21 -26 -15 -44 11 -11 18 -12 26 -3
29 15 5 47 -21 47 -40z m51 -16 c-7 -7 -15 -6 -26 3 -22 18 -19 39 8 49 19 7
22 5 25 -16 2 -14 -1 -30 -7 -36z m405 17 c-3 -8 -12 -14 -21 -14 -22 0 -20
48 3 52 18 4 27 -14 18 -38z m2132 21 c16 -34 15 -35 -8 -35 -16 0 -20 7 -20
30 0 37 13 39 28 5z m-2468 -11 c15 -37 13 -42 -15 -36 -20 3 -25 10 -25 33 0
37 27 39 40 3z m405 16 c8 -13 -13 -40 -31 -40 -17 0 -18 22 -2 38 15 15 25
15 33 2z m1879 -6 c10 -25 7 -34 -9 -34 -9 0 -15 9 -15 25 0 28 15 34 24 9z
m-1820 0 c21 -8 20 -31 -1 -42 -24 -14 -50 13 -33 33 14 17 13 17 34 9z m73
-28 c-4 -9 -14 -16 -22 -16 -9 0 -14 3 -12 8 2 4 7 16 11 26 5 14 10 16 18 8
6 -6 8 -18 5 -26z m63 10 c0 -21 -11 -46 -20 -46 -14 0 -21 32 -9 46 15 18 29
18 29 0z m70 -21 c0 -18 -5 -25 -20 -25 -25 0 -27 37 -2 43 9 3 18 5 20 6 1 0
2 -10 2 -24z m67 -9 c-4 -9 -11 -16 -17 -16 -11 0 -14 33 -3 44 11 10 26 -11
20 -28z m-1153 8 c9 -25 7 -34 -9 -34 -12 0 -35 28 -35 44 0 14 38 5 44 -10z
m54 -22 c4 -27 -14 -29 -28 -3 -14 27 -13 33 8 29 9 -2 18 -13 20 -26z m67 8
c3 -11 3 -25 0 -30 -10 -16 -35 8 -35 31 0 25 27 24 35 -1z m69 4 c8 -22 7
-36 -3 -53 -13 -20 -41 3 -41 34 0 36 32 50 44 19z m454 -6 c-2 -13 -10 -23
-18 -23 -8 0 -16 10 -18 23 -3 17 2 22 18 22 16 0 21 -5 18 -22z m66 6 c11
-28 7 -40 -14 -41 -16 -1 -20 4 -20 28 0 31 23 41 34 13z m506 -4 c-11 -21
-22 -25 -33 -13 -7 6 21 32 36 33 4 0 3 -9 -3 -20z m74 5 c3 -9 -1 -18 -10
-22 -19 -7 -28 2 -21 22 8 19 23 19 31 0z m-1027 -33 c2 -23 -1 -32 -12 -32
-17 0 -35 38 -27 58 9 25 36 8 39 -26z m1200 12 c-9 -9 -28 6 -21 18 4 6 10 6
17 -1 6 -6 8 -13 4 -17z m-687 -6 c0 -23 -20 -34 -31 -17 -15 23 -10 38 11 36
12 -1 20 -8 20 -19z m773 7 c4 -8 3 -16 -1 -19 -12 -7 -53 14 -47 24 9 15 42
12 48 -5z m57 -16 c0 -10 -7 -19 -15 -19 -15 0 -21 31 -9 43 11 10 24 -3 24
-24z m1870 21 c0 -5 -7 -10 -16 -10 -8 0 -12 5 -9 10 3 6 10 10 16 10 5 0 9
-4 9 -10z m-3150 -15 c15 -18 5 -35 -20 -35 -22 0 -34 15 -26 35 7 19 30 19
46 0z m524 -7 c-9 -31 -9 -31 -33 -18 -32 17 -26 40 10 40 27 0 30 -3 23 -22z
m834 -1 c2 -12 -3 -17 -17 -17 -15 0 -21 6 -21 21 0 25 33 22 38 -4z m69 7 c8
-21 -13 -42 -28 -27 -13 13 -5 43 11 43 6 0 13 -7 17 -16z m1656 10 c9 -9 -4
-35 -14 -28 -5 3 -9 12 -9 20 0 14 12 19 23 8z m-3569 -20 c9 -8 16 -25 15
-37 l0 -22 -16 23 c-8 12 -22 22 -30 22 -13 0 -13 3 -3 15 15 18 15 18 34 -1z
m616 -36 c0 -21 -4 -22 -31 -8 -19 10 -26 40 -12 53 10 11 43 -24 43 -45z
m479 36 c9 -8 -13 -24 -35 -24 -23 0 -32 18 -17 33 6 6 42 0 52 -9z m51 -1 c0
-10 -4 -24 -9 -32 -7 -11 -11 -10 -20 7 -16 30 -14 42 9 42 12 0 20 -7 20 -17z
m840 3 c0 -14 -29 -31 -38 -22 -2 3 -2 12 1 21 8 19 37 20 37 1z m120 -1 c0
-8 -4 -15 -9 -15 -13 0 -22 16 -14 24 11 11 23 6 23 -9z m134 -16 c-5 -9 -34
-13 -34 -5 0 2 3 12 6 20 5 13 9 14 20 5 8 -6 11 -15 8 -20z m76 11 c0 -13 -7
-20 -20 -20 -13 0 -20 7 -20 20 0 13 7 20 20 20 13 0 20 -7 20 -20z m63 0 c-6
-22 -33 -28 -33 -7 0 17 10 27 26 27 7 0 10 -8 7 -20z m317 -6 c0 -8 -7 -14
-15 -14 -15 0 -21 21 -9 33 10 9 24 -2 24 -19z m130 -14 c-19 -12 -35 3 -26
26 6 17 8 17 24 0 15 -15 15 -18 2 -26z m-2287 17 c3 -8 2 -19 -3 -26 -5 -10
-9 -8 -14 4 -3 9 -6 21 -6 26 0 14 17 11 23 -4z m693 -16 c-9 -13 -46 -15 -46
-1 0 14 34 30 44 20 4 -4 5 -13 2 -19z m76 5 c12 -18 9 -26 -9 -26 -28 0 -47
16 -40 34 7 17 36 12 49 -8z m738 14 c0 -5 -2 -10 -4 -10 -3 0 -8 5 -11 10 -3
6 -1 10 4 10 6 0 11 -4 11 -10z m404 -6 c4 -11 1 -14 -11 -12 -9 2 -18 9 -21
16 -6 18 25 15 32 -4z m66 6 c0 -5 -8 -10 -17 -10 -15 0 -16 2 -3 10 19 12 20
12 20 0z m110 -5 c10 -13 9 -15 -8 -15 -15 0 -20 5 -16 15 4 8 7 15 9 15 1 0
8 -7 15 -15z m275 5 c-3 -5 -14 -10 -23 -9 -14 0 -13 2 3 9 27 11 27 11 20 0z
m770 -11 c-8 -12 -35 -12 -35 0 0 11 22 20 33 14 4 -2 5 -9 2 -14z m-3600 -9
c0 -21 -28 -19 -31 3 -2 12 3 17 14 15 9 -2 17 -10 17 -18z m2695 16 c0 -11
-19 -15 -25 -6 -3 5 1 10 9 10 9 0 16 -2 16 -4z m324 -32 c5 -17 2 -22 -19
-26 -31 -6 -40 5 -20 25 8 9 15 21 15 28 0 18 16 -1 24 -27z m64 4 c4 -29 -20
-44 -37 -24 -8 10 -7 17 4 26 8 7 12 17 8 22 -3 6 0 9 8 6 8 -2 15 -16 17 -30z
m287 22 c-3 -5 -11 -10 -16 -10 -6 0 -7 5 -4 10 3 6 11 10 16 10 6 0 7 -4 4
-10z m-3299 -11 c3 -6 2 -15 -2 -19 -12 -12 -38 5 -30 19 9 14 23 14 32 0z
m648 -5 c10 -26 7 -34 -14 -34 -13 0 -20 7 -20 18 0 33 23 44 34 16z m606 2
c0 -8 -7 -17 -16 -20 -22 -8 -22 -8 -34 14 -10 18 -8 20 20 20 19 0 30 -5 30
-14z m70 -6 c0 -13 -7 -20 -20 -20 -13 0 -20 7 -20 20 0 13 7 20 20 20 13 0
20 -7 20 -20z m70 -11 c0 -5 -9 -9 -20 -9 -19 0 -27 20 -13 33 7 8 33 -11 33
-24z m1710 11 c0 -15 -7 -20 -24 -20 -29 0 -44 19 -25 31 25 16 49 10 49 -11z
m360 -12 c0 -5 -9 -8 -20 -8 -18 0 -19 3 -9 21 9 17 13 19 20 8 5 -8 9 -17 9
-21z m-3387 15 c9 -9 -12 -33 -29 -33 -17 0 -18 27 -1 33 18 8 23 8 30 0z
m501 1 c9 -3 16 -13 16 -21 0 -20 -34 -12 -38 10 -4 19 -1 20 22 11z m141 -24
c0 -13 -6 -25 -13 -28 -15 -5 -26 22 -18 44 9 23 31 11 31 -16z m753 9 c2 -9
-5 -19 -14 -23 -21 -8 -50 17 -39 34 10 16 49 8 53 -11z m60 -6 c-5 -23 -23
-20 -26 4 -3 18 0 21 13 17 9 -4 15 -13 13 -21z m92 -3 c0 -11 -36 -19 -50
-10 -8 5 -7 12 5 24 13 13 20 14 31 5 8 -6 14 -15 14 -19z m-826 -7 c13 -32
-21 -45 -44 -18 -7 8 -10 21 -7 29 7 18 43 10 51 -11z m892 16 c9 -15 -13 -28
-37 -22 -20 5 -24 15 -12 26 10 11 41 8 49 -4z m2425 -10 c16 -31 -7 -52 -27
-25 -8 11 -14 26 -14 33 0 21 28 15 41 -8z m-3973 -6 c2 -8 -5 -13 -17 -13
-12 0 -21 6 -21 16 0 18 31 15 38 -3z m58 0 c-4 -25 -23 -27 -36 -4 -9 19 -8
21 14 21 17 0 24 -5 22 -17z m1574 8 c0 -6 -5 -13 -10 -16 -15 -9 -43 3 -35
15 8 13 45 13 45 1z m116 -18 c-10 -10 -19 5 -10 18 6 11 8 11 12 0 2 -7 1
-15 -2 -18z m99 18 c7 -12 -4 -19 -38 -25 -26 -4 -37 11 -20 27 10 10 51 8 58
-2z m69 0 c8 -13 -21 -34 -39 -27 -20 7 -8 36 15 36 11 0 21 -4 24 -9z m716
-1 c0 -5 -9 -10 -21 -10 -11 0 -17 5 -14 10 3 6 13 10 21 10 8 0 14 -4 14 -10z
m85 0 c-3 -5 -13 -10 -21 -10 -8 0 -14 5 -14 10 0 6 9 10 21 10 11 0 17 -4 14
-10z m540 0 c-3 -5 -11 -10 -16 -10 -6 0 -7 5 -4 10 3 6 11 10 16 10 6 0 7 -4
4 -10z m-3127 -12 c20 -20 14 -30 -15 -26 -32 4 -46 38 -16 38 11 0 24 -5 31
-12z m582 -8 c0 -13 -7 -20 -20 -20 -13 0 -20 7 -20 20 0 13 7 20 20 20 13 0
20 -7 20 -20z m67 4 c8 -21 -13 -42 -28 -27 -13 13 -5 43 11 43 6 0 13 -7 17
-16z m1207 1 c4 -10 -1 -15 -14 -15 -11 0 -20 7 -20 15 0 8 6 15 14 15 8 0 16
-7 20 -15z m86 0 c0 -9 -9 -15 -25 -15 -24 0 -32 10 -18 23 12 13 43 7 43 -8z
m80 0 c0 -9 -9 -15 -25 -15 -16 0 -25 6 -25 15 0 9 9 15 25 15 16 0 25 -6 25
-15z m86 0 c-26 -20 -66 -19 -66 0 0 11 11 15 43 15 39 -1 41 -2 23 -15z m79
6 c3 -5 1 -13 -5 -16 -15 -9 -43 3 -35 15 8 13 32 13 40 1z m65 -7 c0 -9 -7
-14 -17 -12 -25 5 -28 28 -4 28 12 0 21 -6 21 -16z m88 4 c-3 -7 -15 -13 -28
-13 -13 0 -25 6 -27 13 -3 8 6 12 27 12 21 0 30 -4 28 -12z m86 2 c-7 -7 -19
-7 -35 -1 -23 9 -22 10 11 10 23 1 31 -2 24 -9z m635 -10 c-8 -4 -31 -10 -51
-14 -30 -5 -38 -4 -38 8 0 19 12 22 62 18 26 -3 36 -7 27 -12z m-2942 -5 c3
-9 3 -18 1 -21 -9 -9 -38 8 -38 22 0 19 29 18 37 -1z m63 -11 c0 -8 0 -17 1
-21 0 -4 -4 -9 -10 -11 -12 -4 -34 35 -26 48 8 13 35 1 35 -16z m605 1 c0 -10
-6 -20 -12 -22 -8 -3 -13 5 -13 22 0 17 5 25 13 23 6 -3 12 -13 12 -23z m81 4
c16 -17 16 -22 4 -29 -8 -6 -25 -10 -37 -10 -20 0 -21 3 -12 30 13 35 20 37
45 9z m2064 -10 c0 -12 -57 -12 -65 0 -6 11 22 19 48 13 9 -2 17 -8 17 -13z
m-2672 -7 c3 -9 -3 -13 -19 -10 -12 1 -24 9 -27 16 -3 9 3 13 19 10 12 -1 24
-9 27 -16z m2486 2 c10 -26 7 -34 -14 -34 -13 0 -20 7 -20 18 0 33 23 44 34
16z m-3494 2 c0 -2 -9 -6 -20 -9 -11 -3 -18 -1 -14 4 5 9 34 13 34 5z m50 -11
c7 -9 10 -18 7 -22 -8 -7 -37 15 -37 28 0 14 16 11 30 -6z m428 -2 c2 -8 -5
-13 -17 -13 -12 0 -21 6 -21 16 0 18 31 15 38 -3z m652 -4 c0 -25 -33 -22 -38
4 -2 12 3 17 17 17 15 0 21 -6 21 -21z m568 4 c2 -8 -5 -13 -17 -13 -12 0 -21
6 -21 16 0 18 31 15 38 -3z m85 3 c8 -21 -14 -35 -40 -25 -15 5 -21 14 -17 24
8 19 50 20 57 1z m67 -5 c0 -25 -26 -34 -45 -15 -19 20 -11 34 21 34 17 0 24
-6 24 -19z m79 0 c12 -22 -4 -40 -32 -35 -25 4 -27 6 -20 32 7 27 39 29 52 3z
m74 8 c18 -8 30 -8 45 0 18 9 23 8 32 -8 26 -49 3 -60 -92 -45 -34 6 -38 10
-38 35 0 32 13 36 53 18z m157 -5 c11 -12 11 -18 -2 -30 -12 -13 -20 -14 -37
-5 -34 18 -25 47 15 50 6 1 17 -6 24 -15z m1270 -4 c0 -13 -7 -20 -20 -20 -13
0 -20 7 -20 20 0 13 7 20 20 20 13 0 20 -7 20 -20z m-1195 -11 c9 -13 -35 -33
-47 -21 -17 17 -2 41 22 35 11 -3 23 -9 25 -14z m55 -7 c0 -11 -8 -18 -20 -19
-23 -2 -24 1 -9 28 11 22 29 17 29 -9z m80 8 c0 -12 -29 -40 -41 -40 -10 0
-13 43 -3 52 7 8 44 -3 44 -12z m67 -24 c-9 -22 -47 -21 -47 2 0 10 5 23 12
30 16 16 43 -10 35 -32z m338 28 c12 -12 13 -19 4 -30 -6 -8 -18 -14 -26 -14
-19 0 -28 27 -13 45 15 19 15 19 35 -1z m455 -3 c0 -3 -7 -15 -15 -25 -8 -11
-12 -29 -9 -39 4 -14 2 -18 -7 -15 -17 6 -29 74 -17 86 10 10 48 4 48 -7z
m553 4 c0 -6 -7 -11 -16 -13 -12 -3 -15 1 -11 13 7 17 25 17 27 0z m-2505 -17
c3 -15 -1 -15 -27 -5 -33 12 -31 30 2 25 12 -2 23 -11 25 -20z m1227 13 c6
-10 -11 -24 -32 -27 -14 -2 -18 18 -6 29 9 10 31 9 38 -2z m133 -13 c-3 -25
-17 -32 -37 -19 -19 12 -6 41 19 41 16 0 21 -5 18 -22z m63 -6 c6 -15 5 -22
-4 -22 -19 0 -36 21 -30 37 7 19 24 12 34 -15z m599 18 c0 -11 -41 -31 -49
-24 -2 2 -1 10 2 19 7 17 47 21 47 5z m-3172 -11 c-2 -6 -8 -10 -13 -10 -5 0
-11 4 -13 10 -2 6 4 11 13 11 9 0 15 -5 13 -11z m1240 -16 c3 -19 -1 -23 -22
-23 -28 0 -55 35 -33 44 26 11 52 1 55 -21z m1198 7 c0 -23 -18 -26 -35 -7
-13 16 -5 27 19 27 9 0 16 -8 16 -20z m287 5 c-1 -5 -8 -14 -17 -20 -18 -11
-42 7 -31 25 8 13 51 9 48 -5z m73 4 c3 -6 2 -15 -3 -20 -13 -13 -43 -1 -43
17 0 16 36 19 46 3z m82 -1 c-5 -13 -58 -23 -58 -10 0 15 12 22 38 22 14 0 22
-5 20 -12z m62 3 c0 -13 -26 -32 -33 -24 -8 7 11 33 24 33 5 0 9 -4 9 -9z m70
-5 c0 -17 -32 -15 -38 2 -2 7 6 12 17 12 12 0 21 -6 21 -14z m580 5 c0 -5 -9
-11 -20 -14 -20 -5 -26 3 -13 16 9 10 33 8 33 -2z m-2295 -24 c0 -26 -20 -25
-23 2 -3 16 1 22 10 19 7 -3 13 -12 13 -21z m2008 -29 c-22 -24 -43 -23 -43 2
0 12 9 24 23 29 29 11 41 -8 20 -31z m-2680 18 c3 -8 3 -16 0 -19 -9 -10 -33
5 -33 19 0 18 26 18 33 0z m55 2 c16 -16 15 -38 -1 -38 -19 0 -36 20 -30 36 6
17 15 18 31 2z m2702 5 c0 -5 -5 -15 -10 -23 -8 -12 -10 -11 -10 8 0 12 5 22
10 22 6 0 10 -3 10 -7z m70 -3 c0 -5 -9 -10 -21 -10 -11 0 -17 5 -14 10 3 6
13 10 21 10 8 0 14 -4 14 -10z m-2702 -35 c-11 -11 -37 7 -31 22 5 13 8 13 21
-1 9 -9 13 -18 10 -21z m2277 13 c-5 -25 -26 -41 -38 -29 -12 12 10 51 28 51
9 0 12 -8 10 -22z m130 2 c0 -8 -10 -16 -22 -18 -22 -3 -32 16 -16 32 12 11
38 2 38 -14z m75 5 c0 -9 -7 -18 -16 -22 -18 -7 -39 11 -30 26 11 17 46 13 46
-4z m-1578 -10 c0 -5 -5 -11 -11 -13 -6 -2 -11 4 -11 13 0 9 5 15 11 13 6 -2
11 -8 11 -13z m83 5 c12 -19 -3 -39 -23 -33 -14 3 -18 11 -15 24 6 21 28 26
38 9z m64 -14 c-18 -38 -42 -19 -30 22 1 1 10 2 21 2 17 0 18 -3 9 -24z m73
10 c11 -16 -3 -34 -23 -29 -24 7 -26 41 -1 39 9 0 20 -5 24 -10z m98 -1 c0
-18 -34 -37 -54 -29 -23 9 -20 23 7 34 33 13 47 12 47 -5z m52 -11 c-5 -25 -6
-26 -25 -18 -13 5 -14 10 -6 26 13 24 35 18 31 -8z m93 -4 c0 -16 -35 -22 -54
-10 -12 7 -12 11 -2 24 14 17 56 7 56 -14z m59 21 c8 -12 -3 -41 -15 -41 -5 0
-9 11 -9 25 0 25 14 34 24 16z m494 -14 c-2 -11 -11 -21 -20 -23 -19 -2 -22 5
-13 29 9 22 36 17 33 -6z m82 1 c0 -10 -3 -18 -7 -19 -5 0 -16 -2 -26 -4 -13
-2 -17 1 -13 12 3 8 6 18 6 23 0 5 9 8 20 7 12 -1 20 -8 20 -19z m75 -2 c0
-26 -19 -31 -39 -11 -20 21 -11 37 17 33 14 -2 22 -10 22 -22z m65 5 c0 -23
-9 -31 -26 -24 -21 8 -17 39 6 40 13 1 20 -4 20 -16z m67 3 c3 -9 0 -20 -8
-25 -23 -14 -29 -11 -29 16 0 28 27 35 37 9z m707 4 c-3 -4 -12 -8 -20 -8 -8
0 -13 4 -10 8 3 5 12 9 20 9 8 0 13 -4 10 -9z m-1064 -10 c0 -26 -14 -33 -63
-33 -45 1 -52 4 -55 21 -3 19 2 21 58 20 33 0 60 -4 60 -8z m-355 -8 c-3 -5
-13 -10 -21 -10 -8 0 -14 5 -14 10 0 6 9 10 21 10 11 0 17 -4 14 -10z m135 0
c0 -5 -7 -10 -15 -10 -8 0 -15 5 -15 10 0 6 7 10 15 10 8 0 15 -4 15 -10z m70
1 c0 -5 -9 -11 -20 -14 -20 -5 -26 3 -13 16 9 10 33 8 33 -2z m-1170 -17 c0
-9 -7 -14 -17 -12 -25 5 -28 28 -4 28 12 0 21 -6 21 -16z m2266 9 c-4 -5 -32
-8 -61 -8 -29 0 -51 3 -48 8 2 4 29 7 60 7 31 0 53 -3 49 -7z m-918 -61 c2 -8
-8 -12 -27 -12 -31 0 -42 14 -18 23 19 7 41 1 45 -11z m77 7 c10 -15 -1 -23
-20 -15 -9 3 -13 10 -10 16 8 13 22 13 30 -1z m-2565 -69 c0 -5 -7 -10 -16
-10 -8 0 -12 5 -9 10 3 6 10 10 16 10 5 0 9 -4 9 -10z m-360 -35 c-7 -8 -17
-15 -22 -15 -6 0 -5 7 2 15 7 8 17 15 22 15 6 0 5 -7 -2 -15z m-196 -159 c-7
-19 -44 -28 -44 -11 0 15 30 36 42 29 4 -3 5 -11 2 -18z"/>
<path d="M3234 4916 c-79 -38 -138 -85 -160 -129 -19 -36 -22 -37 101 44 94
62 160 119 139 119 -5 0 -41 -15 -80 -34z"/>
<path d="M3418 4680 c-27 -27 -45 -50 -41 -50 14 0 96 55 117 78 19 22 19 22
-4 22 -14 0 -41 -19 -72 -50z"/>
<path d="M3245 4523 c-62 -70 -105 -135 -105 -157 0 -19 1 -19 17 4 9 14 39
47 67 75 46 47 86 101 86 118 0 19 -29 1 -65 -40z"/>
<path d="M3140 4551 c0 -4 8 -15 18 -24 21 -19 56 -23 50 -6 -4 13 -68 41 -68
30z"/>
<path d="M2885 4500 c-4 -6 10 -10 36 -10 48 0 49 6 2 15 -18 3 -35 1 -38 -5z"/>
<path d="M2769 4349 c-16 -9 31 -16 61 -9 22 6 21 7 -13 11 -20 3 -42 2 -48
-2z"/>
<path d="M2685 4210 c-11 -17 42 -43 72 -35 l28 8 -26 7 c-14 4 -35 12 -46 19
-14 7 -24 7 -28 1z"/>
<path d="M2656 4129 c16 -27 114 -51 114 -28 0 6 -6 9 -14 6 -7 -3 -28 3 -45
14 -35 21 -66 26 -55 8z"/>
<path d="M2586 3962 c-6 -10 90 -42 125 -42 13 0 -7 11 -46 25 -81 29 -73 27
-79 17z"/>
<path d="M2260 3426 c14 -8 49 -22 78 -31 42 -14 55 -15 67 -5 22 18 18 28 -8
23 -13 -3 -48 2 -77 11 -66 20 -95 20 -60 2z"/>
<path d="M2350 3271 c67 -29 77 -30 65 -11 -11 17 -70 40 -102 40 -22 -1 -14
-7 37 -29z"/>
<path d="M2370 3196 c0 -10 52 -36 62 -30 6 4 -3 12 -22 20 -34 15 -40 16 -40
10z"/>
<path d="M2570 3107 c14 -6 67 -31 117 -55 51 -24 110 -45 130 -47 21 -3 30
-2 20 1 -9 3 -57 25 -106 49 -82 40 -152 66 -176 64 -5 0 1 -5 15 -12z"/>
<path d="M2285 3022 c15 -16 65 -26 65 -13 0 6 -6 11 -12 11 -7 0 -24 3 -38 6
-17 5 -22 4 -15 -4z"/>
<path d="M2740 2957 c0 -11 155 -79 191 -84 48 -7 59 13 12 22 -20 3 -59 17
-86 31 -50 23 -117 41 -117 31z"/>
<path d="M3106 2900 c21 -79 134 -275 134 -233 0 14 8 24 23 29 l22 7 -26 11
c-45 19 -61 37 -54 63 3 13 2 22 -2 21 -22 -4 -47 20 -74 71 -16 31 -27 45
-23 31z"/>
<path d="M2872 2839 c2 -7 10 -15 17 -17 8 -3 12 1 9 9 -2 7 -10 15 -17 17 -8
3 -12 -1 -9 -9z"/>
<path d="M2761 2745 c100 -51 170 -80 219 -88 28 -5 21 1 -35 28 -194 96 -354
148 -184 60z"/>
<path d="M1225 3450 c-16 -16 -26 -32 -24 -34 6 -6 19 3 48 37 33 37 12 35
-24 -3z"/>
<path d="M1545 3326 c-25 -10 -27 -13 -11 -19 19 -8 56 8 56 23 0 13 -8 12
-45 -4z"/>
<path d="M1553 3249 c-29 -11 -39 -29 -15 -29 20 0 92 27 92 34 0 7 -54 4 -77
-5z"/>
<path d="M1582 3176 c-29 -8 -56 -17 -60 -21 -13 -13 93 7 108 21 8 8 12 14
10 13 -3 0 -29 -6 -58 -13z"/>
<path d="M1551 3011 c-28 -18 -4 -25 29 -9 32 16 33 18 10 18 -14 0 -31 -4
-39 -9z"/>
<path d="M1580 2944 c-22 -12 -23 -13 -5 -13 24 -1 50 14 38 22 -4 3 -19 -1
-33 -9z"/>
<path d="M871 2250 c-18 -60 -15 -73 13 -66 20 5 30 -1 52 -29 40 -53 49 -46
49 40 0 83 4 79 -71 89 -29 4 -32 1 -43 -34z"/>
<path d="M2588 2170 c-4 -8 -18 -48 -32 -89 -29 -83 -63 -146 -107 -196 -36
-41 -30 -59 14 -49 18 4 37 7 43 7 8 0 10 13 7 36 -4 29 5 56 42 133 36 75 46
104 43 134 -2 23 -6 33 -10 24z"/>
<path d="M1624 1774 c-12 -49 29 -82 63 -49 24 25 7 69 -29 73 -23 3 -29 -2
-34 -24z"/>
<path d="M2627 1642 c-32 -34 -33 -42 -7 -65 24 -20 48 -21 73 -3 14 11 16 19
7 40 -10 27 -22 35 -19 14 4 -36 -15 -54 -42 -38 -11 7 -9 14 11 35 16 17 20
29 14 35 -7 7 -19 1 -37 -18z"/>
<path d="M2867 1612 c-22 -25 -21 -38 4 -56 32 -22 55 -9 26 14 -18 15 -20 21
-9 31 6 7 12 17 12 21 0 14 -16 9 -33 -10z"/>
<path d="M3092 1614 c-28 -20 -29 -61 0 -85 33 -30 55 -21 36 15 -6 11 -11 35
-10 53 2 38 3 37 -26 17z"/>
<path d="M3943 1533 c-7 -2 -13 -13 -13 -22 0 -20 36 -71 51 -71 12 0 12 37
-1 45 -5 3 -10 17 -10 31 0 24 -4 27 -27 17z"/>
<path d="M2153 5026 c-131 -49 -265 -153 -347 -270 -67 -95 -65 -97 15 -16
121 123 246 219 359 276 46 23 61 35 43 33 -5 0 -36 -10 -70 -23z"/>
<path d="M2384 5009 c-17 -16 -91 -81 -165 -142 -108 -90 -139 -122 -159 -163
-14 -29 -50 -83 -81 -120 -60 -73 -89 -122 -89 -150 0 -10 10 -2 26 22 136
202 305 384 439 471 78 51 95 68 95 95 0 28 -32 22 -66 -13z"/>
<path d="M2390 4770 c0 -5 4 -10 9 -10 6 0 13 5 16 10 3 6 -1 10 -9 10 -9 0
-16 -4 -16 -10z"/>
<path d="M2240 4661 c0 -6 10 -8 21 -6 33 6 36 15 6 15 -15 0 -27 -4 -27 -9z"/>
<path d="M1649 4548 c-57 -62 -109 -150 -129 -219 -12 -38 -25 -69 -30 -69 -6
0 -10 -13 -10 -30 0 -26 -4 -30 -42 -40 -79 -20 -128 -41 -128 -57 0 -11 7 -9
32 8 21 16 47 23 77 23 l46 1 -3 -34 c-5 -62 -30 -89 -127 -136 -104 -51 -101
-59 4 -15 40 17 75 28 80 26 5 -3 0 -40 -10 -83 -27 -114 -29 -132 -14 -127
20 8 33 51 39 124 11 146 149 517 232 628 14 17 22 32 19 32 -3 0 -20 -15 -36
-32z"/>
<path d="M2030 4487 c0 -7 9 -13 20 -13 11 0 20 6 20 13 0 7 -9 13 -20 13 -11
0 -20 -6 -20 -13z"/>
<path d="M1474 4459 c-2 -4 12 -9 32 -11 19 -2 37 -1 40 3 2 4 -12 9 -32 11
-19 2 -37 1 -40 -3z"/>
<path d="M1911 4401 c-9 -6 -10 -11 -2 -15 13 -8 31 1 31 15 0 11 -11 11 -29
0z"/>
<path d="M1838 4370 c-14 -25 -15 -30 -3 -30 18 0 40 39 28 51 -4 4 -16 -5
-25 -21z"/>
<path d="M1403 4347 c-10 -16 6 -19 44 -10 l38 10 -38 4 c-21 3 -41 1 -44 -4z"/>
<path d="M1786 4284 c-3 -9 -6 -23 -6 -31 0 -13 3 -13 15 -3 16 13 21 50 6 50
-5 0 -12 -7 -15 -16z"/>
<path d="M1352 4244 c-12 -8 -22 -19 -22 -24 0 -12 61 7 79 25 14 13 13 15
-10 15 -13 0 -35 -7 -47 -16z"/>
<path d="M1304 4061 c-17 -4 -36 -11 -42 -15 -20 -12 -13 -25 9 -21 22 4 69
32 69 40 0 3 -1 5 -2 4 -2 -1 -17 -4 -34 -8z"/>
<path d="M1236 3881 c-4 -5 -2 -12 3 -15 5 -4 12 -2 15 3 4 5 2 12 -3 15 -5 4
-12 2 -15 -3z"/>
<path d="M1228 3774 c-16 -8 -28 -23 -28 -35 0 -19 2 -18 35 7 52 39 47 58 -7
28z"/>
<path d="M6312 1328 c7 -19 63 -22 78 -4 11 14 7 16 -35 16 -33 0 -45 -4 -43
-12z"/>
<path d="M5600 1320 c-23 -6 -22 -8 14 -15 45 -9 197 -1 219 11 18 11 -195 14
-233 4z"/>
<path d="M5955 1320 c-4 -6 9 -10 32 -9 30 0 34 2 18 9 -27 12 -43 12 -50 0z"/>
<path d="M6185 1320 c-7 -12 32 -12 60 0 16 7 13 9 -17 9 -20 1 -40 -3 -43 -9z"/>
<path d="M5802 1250 c-58 -14 -46 -18 53 -19 53 -1 100 -3 105 -6 15 -9 195
-6 220 4 14 5 23 10 20 11 -32 9 -68 12 -205 15 -88 2 -175 0 -193 -5z"/>
<path d="M5113 1210 c-23 -5 -56 -16 -74 -26 l-33 -17 53 -19 c55 -21 78 -18
45 6 -30 22 -9 31 79 34 96 3 127 9 127 22 0 12 -137 11 -197 0z"/>
<path d="M245 1199 c-31 -7 -36 -6 131 -14 28 -2 58 1 65 6 9 5 -12 9 -56 10
-38 0 -79 2 -90 3 -11 1 -33 -1 -50 -5z"/>
<path d="M6024 1199 c-5 -9 53 -17 67 -8 6 3 -5 8 -25 11 -21 2 -39 1 -42 -3z"/>
<path d="M361 1141 c-9 -6 -1 -8 25 -7 21 2 62 -2 90 -9 28 -6 59 -9 69 -5 19
7 19 7 -2 18 -25 14 -162 16 -182 3z"/>
<path d="M4760 1111 c0 -5 9 -7 20 -4 11 3 20 7 20 9 0 2 -9 4 -20 4 -11 0
-20 -4 -20 -9z"/>
<path d="M5162 1100 c-65 -7 -93 -19 -51 -21 38 -2 389 3 439 6 25 1 89 3 143
4 53 0 97 4 97 9 0 9 -544 11 -628 2z"/>
<path d="M629 1096 c-3 -2 -332 -15 -412 -16 -10 0 -16 -4 -13 -8 8 -13 376
-6 409 7 15 6 27 13 27 16 0 6 -5 7 -11 1z"/>
<path d="M1489 1052 c-1 -4 -1 -10 0 -14 0 -4 -18 -11 -42 -16 -38 -7 -33 -9
63 -16 145 -12 248 -12 260 0 5 5 -10 9 -43 9 -29 0 -74 8 -102 17 -56 18
-134 30 -136 20z"/>
<path d="M5855 1043 c-47 -12 -30 -20 52 -21 84 -2 150 5 140 14 -7 8 -170 14
-192 7z"/>
<path d="M290 1019 c-14 -4 37 -7 112 -8 75 -1 139 2 141 7 6 9 -219 10 -253
1z"/>
<path d="M1960 1005 c0 -8 -6 -12 -14 -9 -8 3 -17 1 -21 -5 -4 -7 9 -11 36
-11 41 0 42 0 24 20 -22 24 -25 25 -25 5z"/>
<path d="M5226 1009 c-44 -5 -75 -14 -85 -25 -12 -12 -12 -15 -2 -9 8 5 72 8
141 6 115 -2 129 0 151 19 l24 20 -80 -2 c-44 -1 -111 -5 -149 -9z"/>
<path d="M2430 991 c0 -6 18 -11 42 -11 48 0 45 10 -6 17 -22 3 -36 0 -36 -6z"/>
<path d="M2634 988 c-3 -4 2 -8 10 -8 8 0 17 4 20 8 3 5 -2 9 -10 9 -8 0 -17
-4 -20 -9z"/>
<path d="M2886 991 c-4 -5 3 -7 14 -4 23 6 26 13 6 13 -8 0 -17 -4 -20 -9z"/>
<path d="M4727 990 c-32 -4 -61 -11 -65 -15 -11 -11 141 4 152 15 11 11 0 11
-87 0z"/>
<path d="M6016 988 c-27 -4 -53 -11 -59 -17 -15 -15 273 -9 298 6 18 11 17 13
-15 14 -114 4 -181 4 -224 -3z"/>
<path d="M4383 978 c-38 -18 -26 -24 35 -17 31 4 65 8 75 8 9 1 17 6 17 11 0
13 -99 12 -127 -2z"/>
<path d="M1458 973 c6 -2 18 -2 25 0 6 3 1 5 -13 5 -14 0 -19 -2 -12 -5z"/>
<path d="M1658 973 c7 -3 16 -2 19 1 4 3 -2 6 -13 5 -11 0 -14 -3 -6 -6z"/>
<path d="M2998 973 c6 -2 18 -2 25 0 6 3 1 5 -13 5 -14 0 -19 -2 -12 -5z"/>
<path d="M2915 961 c-9 -15 8 -35 24 -30 8 3 7 10 -2 23 -10 14 -16 16 -22 7z"/>
<path d="M4250 961 c0 -11 67 -24 80 -16 23 14 7 25 -35 25 -25 0 -45 -4 -45
-9z"/>
<path d="M5617 963 c-7 -12 113 -14 132 -3 11 6 -6 9 -56 10 -39 0 -74 -3 -76
-7z"/>
<path d="M1494 948 c-3 -4 13 -8 35 -8 23 0 41 5 41 10 0 12 -69 10 -76 -2z"/>
<path d="M4670 950 c0 -5 9 -10 21 -10 11 0 17 5 14 10 -3 6 -13 10 -21 10 -8
0 -14 -4 -14 -10z"/>
<path d="M3750 944 c0 -31 112 -55 151 -33 23 13 20 14 -41 20 -36 4 -75 10
-87 14 -13 4 -23 3 -23 -1z"/>
<path d="M1410 930 c19 -5 41 -4 50 0 10 6 -1 9 -35 9 -48 -1 -49 -1 -15 -9z"/>
<path d="M4550 930 c-12 -7 -8 -10 15 -10 17 0 37 5 45 10 12 7 8 10 -15 10
-16 0 -37 -5 -45 -10z"/>
<path d="M1844 914 c-7 -10 -49 -15 -159 -19 -155 -7 -218 -15 -270 -35 -19
-8 -25 -14 -16 -18 10 -3 8 -9 -10 -23 l-24 -19 32 0 c22 0 37 7 50 25 17 23
26 25 118 30 55 3 127 11 160 18 70 16 94 14 155 -8 36 -13 65 -16 138 -11 52
3 97 8 102 11 4 3 36 5 70 6 55 2 60 3 46 17 -13 13 -42 15 -177 13 -127 -2
-166 1 -183 12 -19 13 -24 13 -32 1z"/>
<path d="M4694 909 c-3 -5 9 -9 25 -9 17 0 31 3 31 8 0 10 -49 12 -56 1z"/>
<path d="M2407 895 c-27 -7 -54 -18 -60 -25 -10 -10 0 -11 48 -5 33 5 68 8 78
7 9 0 17 3 17 8 0 21 -36 27 -83 15z"/>
<path d="M3488 903 c6 -2 18 -2 25 0 6 3 1 5 -13 5 -14 0 -19 -2 -12 -5z"/>
<path d="M2515 890 c-8 -13 3 -30 19 -30 8 0 24 9 37 20 l24 19 -37 1 c-20 0
-40 -4 -43 -10z"/>
<path d="M4112 894 c11 -10 67 -13 73 -3 4 5 -12 9 -36 9 -23 0 -40 -3 -37 -6z"/>
<path d="M4760 868 c-95 -7 -124 -12 -182 -33 -23 -8 -50 -10 -62 -6 -24 8
-87 -1 -71 -11 21 -12 78 -20 185 -23 111 -4 140 6 80 26 -30 11 -41 29 -17
29 6 1 54 3 104 7 82 5 98 3 139 -16 33 -16 73 -23 142 -27 54 -3 112 -10 131
-15 19 -4 37 -7 39 -4 9 9 -10 24 -38 30 -54 12 -35 28 45 38 28 4 -30 6 -295
10 -63 1 -153 -1 -200 -5z m376 -17 c-8 -12 -73 -23 -97 -16 -35 11 -9 25 47
25 30 0 53 -4 50 -9z"/>
<path d="M3245 859 c-96 -7 -200 -27 -191 -37 9 -9 151 -4 251 9 50 6 102 12
118 13 15 0 27 4 27 8 0 10 -106 14 -205 7z"/>
<path d="M5346 839 c-86 -13 -68 -24 44 -27 102 -3 214 10 224 26 6 10 -207
10 -268 1z"/>
<path d="M818 832 c-66 -8 -2 -36 74 -34 21 1 52 8 70 16 l33 14 -55 2 c-30 1
-64 2 -75 3 -11 1 -32 1 -47 -1z"/>
<path d="M3906 829 c-16 -4 -108 -11 -205 -14 -163 -5 -323 -21 -245 -24 17 0
37 -8 44 -16 10 -12 15 -12 34 0 17 11 67 17 197 20 257 8 279 9 279 17 0 19
-63 29 -104 17z"/>
<path d="M223 822 c-13 -2 -23 -7 -23 -12 0 -15 41 -22 88 -14 26 4 64 7 84 6
21 0 40 3 43 8 5 9 -150 18 -192 12z"/>
<path d="M1051 826 c9 -9 90 -13 95 -5 3 5 -18 9 -47 9 -29 0 -50 -2 -48 -4z"/>
<path d="M77 813 c-8 -7 23 -32 41 -33 18 0 15 27 -4 34 -20 8 -29 8 -37 -1z"/>
<path d="M4225 800 c-8 -12 20 -24 35 -15 5 3 10 10 10 16 0 12 -37 12 -45 -1z"/>
<path d="M1888 795 c-1 -1 -34 -5 -73 -9 -104 -8 -155 -18 -150 -27 3 -4 45
-5 93 -2 48 2 110 6 137 8 62 3 61 3 49 15 -11 11 -49 21 -56 15z"/>
<path d="M2496 791 c14 -15 64 -21 106 -14 64 10 42 23 -39 23 -48 0 -73 -4
-67 -9z"/>
<path d="M957 765 c-24 -10 -14 -11 60 -7 48 2 95 8 103 13 23 13 -130 8 -163
-6z"/>
<path d="M4080 763 c-69 -6 -122 -15 -117 -20 14 -13 158 -13 189 1 25 11 28
15 13 16 -11 1 -27 2 -35 4 -8 1 -31 0 -50 -1z"/>
<path d="M5141 756 c-26 -14 -34 -12 154 -32 52 -5 127 8 114 20 -4 4 -112 16
-194 21 -28 2 -61 -2 -74 -9z"/>
<path d="M2300 748 c-30 -5 -89 -8 -130 -9 -127 0 -109 -15 27 -22 179 -9 253
-9 253 3 0 26 -71 40 -150 28z"/>
<path d="M3348 750 c-47 -3 -82 -10 -90 -19 -10 -11 -10 -12 0 -7 7 4 51 9 98
10 47 2 90 8 96 14 8 8 5 10 -8 9 -11 -1 -54 -4 -96 -7z"/>
<path d="M2706 734 c-34 -11 -45 -18 -36 -24 7 -4 23 -6 34 -4 12 2 47 5 79 6
47 1 55 4 45 15 -21 21 -69 23 -122 7z"/>
<path d="M4615 742 c-80 -7 -53 -19 74 -32 106 -11 135 -11 160 0 54 22 44 28
-53 29 -51 1 -104 3 -117 5 -13 1 -42 1 -64 -2z"/>
<path d="M2905 729 c-10 -15 0 -21 27 -17 l23 3 -22 13 c-15 8 -24 9 -28 1z"/>
<path d="M1333 715 c-3 -9 -15 -10 -38 -5 -47 11 -102 4 -131 -15 -26 -17 -24
-34 4 -33 9 0 61 -3 116 -7 85 -6 254 1 244 10 -2 2 -16 5 -33 8 -16 3 -59 11
-95 18 -61 13 -63 14 -30 19 l35 6 -33 5 c-22 4 -36 1 -39 -6z"/>
<path d="M680 700 c0 -12 34 -12 70 0 20 7 16 8 -22 9 -27 1 -48 -3 -48 -9z"/>
<path d="M897 697 c-45 -14 -40 -29 7 -20 34 6 73 34 46 32 -8 0 -32 -6 -53
-12z"/>
<path d="M4357 684 c-6 -4 -154 -14 -214 -14 -77 0 -89 -8 -47 -31 50 -26 406
-10 438 21 11 11 -39 20 -117 23 -32 1 -59 1 -60 1z"/>
<path d="M3009 642 c-29 -20 -23 -30 19 -27 20 2 51 4 68 4 18 1 42 10 55 20
l24 19 -73 -1 c-44 -1 -81 -7 -93 -15z"/>
<path d="M3385 650 c-3 -5 3 -10 15 -10 12 0 18 5 15 10 -3 6 -10 10 -15 10
-5 0 -12 -4 -15 -10z"/>
<path d="M2118 607 c-16 -6 -28 -14 -28 -17 0 -12 199 -11 242 2 l43 12 -70 7
c-101 9 -156 8 -187 -4z"/>
<path d="M2650 609 c-24 -7 -24 -7 5 -9 17 -1 37 -3 45 -5 8 -1 42 -9 75 -15
43 -9 69 -10 90 -3 29 10 29 10 -25 21 -75 15 -160 20 -190 11z"/>
<path d="M3745 574 c-11 -2 -51 -6 -90 -10 -62 -6 -67 -8 -40 -16 17 -5 64 -9
105 -10 81 -2 243 20 235 32 -4 7 -165 10 -210 4z"/>
<path d="M890 559 c0 -21 42 -31 75 -19 13 5 43 12 66 15 72 11 58 15 -44 13
-54 0 -97 -5 -97 -9z"/>
<path d="M3310 560 c0 -5 7 -10 15 -10 8 0 18 0 22 -1 4 0 9 4 11 10 2 6 -8
11 -22 11 -14 0 -26 -4 -26 -10z"/>
</g>
</svg>
